<svg width="132" height="115" viewBox="0 0 132 115" fill="none" xmlns="http://www.w3.org/2000/svg">
<mask id="mask0_53_1117" style="mask-type:luminance" maskUnits="userSpaceOnUse" x="81" y="32" width="50" height="11">
<path d="M90.4689 41.262C90.4689 41.262 94.3136 36.8555 99.9227 36.8555C99.9227 36.8555 100.109 33.4313 103.937 32.6917C107.765 31.9521 108.507 35.3706 108.507 35.3706C108.507 35.3706 111.33 33.8717 115.135 35.3706C118.941 36.8696 118.161 41.2507 118.161 41.2507C118.161 41.2507 129.12 40.8922 131 42.8993H81.7546C81.7546 42.8993 82.7482 40.4434 90.4689 41.262Z" fill="white"/>
</mask>
<g mask="url(#mask0_53_1117)">
<path opacity="0.5" d="M90.4689 41.262C90.4689 41.262 94.3136 36.8555 99.9227 36.8555C99.9227 36.8555 100.109 33.4313 103.937 32.6917C107.765 31.9521 108.507 35.3706 108.507 35.3706C108.507 35.3706 111.33 33.8717 115.135 35.3706C118.941 36.8696 118.161 41.2507 118.161 41.2507C118.161 41.2507 129.12 40.8922 131 42.8993H81.7546C81.7546 42.8993 82.7482 40.4434 90.4689 41.262Z" stroke="#263238" stroke-linecap="round" stroke-linejoin="round"/>
</g>
<path d="M90.4689 41.262C90.4689 41.262 94.3136 36.8555 99.9227 36.8555C99.9227 36.8555 100.109 33.4313 103.937 32.6917C107.765 31.9521 108.507 35.3706 108.507 35.3706C108.507 35.3706 111.33 33.8717 115.135 35.3706C118.941 36.8696 118.161 41.2507 118.161 41.2507C118.161 41.2507 129.12 40.8922 131 42.8993H81.7546C81.7546 42.8993 82.7482 40.4434 90.4689 41.262Z" stroke="#263238" stroke-linecap="round" stroke-linejoin="round"/>
<mask id="mask1_53_1117" style="mask-type:luminance" maskUnits="userSpaceOnUse" x="5" y="6" width="50" height="11">
<path d="M14.1885 14.772C14.1885 14.772 18.0333 10.3655 23.6396 10.3655C23.6396 10.3655 23.8259 6.94129 27.6538 6.20452C31.4816 5.46774 32.2268 8.88062 32.2268 8.88062C32.2268 8.88062 35.0497 7.38166 38.8522 8.88062C42.6546 10.3796 41.8812 14.7607 41.8812 14.7607C41.8812 14.7607 52.8368 14.4022 54.7169 16.4121H5.47144C5.47144 16.4121 6.46509 13.9534 14.1885 14.772Z" fill="white"/>
</mask>
<g mask="url(#mask1_53_1117)">
<path opacity="0.5" d="M14.1885 14.772C14.1885 14.772 18.0333 10.3655 23.6396 10.3655C23.6396 10.3655 23.8259 6.94129 27.6538 6.20452C31.4816 5.46774 32.2268 8.88062 32.2268 8.88062C32.2268 8.88062 35.0497 7.38166 38.8522 8.88062C42.6546 10.3796 41.8812 14.7607 41.8812 14.7607C41.8812 14.7607 52.8368 14.4022 54.7169 16.4121H5.47144C5.47144 16.4121 6.46509 13.9534 14.1885 14.772Z" stroke="#263238" stroke-linecap="round" stroke-linejoin="round"/>
</g>
<path d="M14.1885 14.772C14.1885 14.772 18.0333 10.3655 23.6396 10.3655C23.6396 10.3655 23.8259 6.94129 27.6538 6.20452C31.4816 5.46774 32.2268 8.88062 32.2268 8.88062C32.2268 8.88062 35.0497 7.38166 38.8522 8.88062C42.6546 10.3796 41.8812 14.7607 41.8812 14.7607C41.8812 14.7607 52.8368 14.4022 54.7169 16.4121H5.47144C5.47144 16.4121 6.46509 13.9534 14.1885 14.772Z" stroke="#263238" stroke-linecap="round" stroke-linejoin="round"/>
<mask id="mask2_53_1117" style="mask-type:luminance" maskUnits="userSpaceOnUse" x="70" y="64" width="40" height="9">
<path d="M102.534 71.3541C102.534 71.3541 99.4654 67.8396 94.994 67.8396C94.994 67.8396 94.8443 65.1098 91.7928 64.5199C88.7412 63.9299 88.1456 66.6568 88.1456 66.6568C88.1456 66.6568 85.8873 65.4599 82.8612 66.6568C79.835 67.8537 80.4448 71.3456 80.4448 71.3456C80.4448 71.3456 71.6938 71.0633 70.2061 72.6639H109.475C109.475 72.6639 108.691 70.702 102.534 71.3541Z" fill="white"/>
</mask>
<g mask="url(#mask2_53_1117)">
<path opacity="0.5" d="M102.534 71.3541C102.534 71.3541 99.4654 67.8396 94.994 67.8396C94.994 67.8396 94.8443 65.1098 91.7928 64.5199C88.7412 63.9299 88.1456 66.6568 88.1456 66.6568C88.1456 66.6568 85.8873 65.4599 82.8612 66.6568C79.835 67.8537 80.4448 71.3456 80.4448 71.3456C80.4448 71.3456 71.6938 71.0633 70.2061 72.6639H109.475C109.475 72.6639 108.691 70.702 102.534 71.3541Z" stroke="#263238" stroke-linecap="round" stroke-linejoin="round"/>
</g>
<path d="M102.534 71.3541C102.534 71.3541 99.4654 67.8396 94.994 67.8396C94.994 67.8396 94.8443 65.1098 91.7928 64.5199C88.7412 63.9299 88.1456 66.6568 88.1456 66.6568C88.1456 66.6568 85.8873 65.4599 82.8612 66.6568C79.835 67.8537 80.4448 71.3456 80.4448 71.3456C80.4448 71.3456 71.6938 71.0633 70.2061 72.6639H109.475C109.475 72.6639 108.691 70.702 102.534 71.3541Z" stroke="#263238" stroke-linecap="round" stroke-linejoin="round"/>
<mask id="mask3_53_1117" style="mask-type:luminance" maskUnits="userSpaceOnUse" x="1" y="55" width="40" height="9">
<path d="M33.3335 62.3773C33.3335 62.3773 30.265 58.8628 25.7935 58.8628C25.7935 58.8628 25.6439 56.1302 22.5923 55.5431C19.5408 54.9559 18.9452 57.6772 18.9452 57.6772C18.9452 57.6772 16.6868 56.4831 13.6607 57.6772C10.6345 58.8713 11.2386 62.3688 11.2386 62.3688C11.2386 62.3688 2.48767 62.0865 1 63.6843H40.2834C40.2834 63.6843 39.4902 61.7252 33.3335 62.3773Z" fill="white"/>
</mask>
<g mask="url(#mask3_53_1117)">
<path opacity="0.5" d="M33.3335 62.3773C33.3335 62.3773 30.265 58.8628 25.7935 58.8628C25.7935 58.8628 25.6439 56.1302 22.5923 55.5431C19.5408 54.9559 18.9452 57.6772 18.9452 57.6772C18.9452 57.6772 16.6868 56.4831 13.6607 57.6772C10.6345 58.8713 11.2386 62.3688 11.2386 62.3688C11.2386 62.3688 2.48767 62.0865 1 63.6843H40.2834C40.2834 63.6843 39.4902 61.7252 33.3335 62.3773Z" stroke="#263238" stroke-linecap="round" stroke-linejoin="round"/>
</g>
<path d="M33.3335 62.3773C33.3335 62.3773 30.265 58.8628 25.7935 58.8628C25.7935 58.8628 25.6439 56.1302 22.5923 55.5431C19.5408 54.9559 18.9452 57.6772 18.9452 57.6772C18.9452 57.6772 16.6868 56.4831 13.6607 57.6772C10.6345 58.8713 11.2386 62.3688 11.2386 62.3688C11.2386 62.3688 2.48767 62.0865 1 63.6843H40.2834C40.2834 63.6843 39.4902 61.7252 33.3335 62.3773Z" stroke="#263238" stroke-linecap="round" stroke-linejoin="round"/>
<mask id="mask4_53_1117" style="mask-type:luminance" maskUnits="userSpaceOnUse" x="38" y="44" width="25" height="5">
<path d="M43.0386 48.1922C43.0386 48.1922 44.8621 46.1033 47.5185 46.1033C47.5676 45.6085 47.7816 45.1446 48.1262 44.7862C48.4708 44.4278 48.9259 44.1957 49.4183 44.1272C51.2334 43.7772 51.5863 45.3947 51.5863 45.3947C52.0818 45.1803 52.6159 45.0697 53.1558 45.0697C53.6957 45.0697 54.2299 45.1803 54.7253 45.3947C56.5235 46.1033 56.1594 48.1809 56.1594 48.1809C56.1594 48.1809 61.3507 48.0087 62.2399 48.9629H38.903C38.903 48.9629 39.3829 47.8026 43.0386 48.1922Z" fill="white"/>
</mask>
<g mask="url(#mask4_53_1117)">
<path opacity="0.5" d="M43.0386 48.1922C43.0386 48.1922 44.8621 46.1033 47.5185 46.1033C47.5676 45.6085 47.7816 45.1446 48.1262 44.7862C48.4708 44.4278 48.9259 44.1957 49.4183 44.1272C51.2334 43.7772 51.5863 45.3947 51.5863 45.3947C52.0818 45.1803 52.6159 45.0697 53.1558 45.0697C53.6957 45.0697 54.2299 45.1803 54.7253 45.3947C56.5235 46.1033 56.1594 48.1809 56.1594 48.1809C56.1594 48.1809 61.3507 48.0087 62.2399 48.9629H38.903C38.903 48.9629 39.3829 47.8026 43.0386 48.1922Z" stroke="#263238" stroke-linecap="round" stroke-linejoin="round"/>
</g>
<path d="M43.0386 48.1922C43.0386 48.1922 44.8621 46.1033 47.5185 46.1033C47.5676 45.6085 47.7816 45.1446 48.1262 44.7862C48.4708 44.4278 48.9259 44.1957 49.4183 44.1272C51.2334 43.7772 51.5863 45.3947 51.5863 45.3947C52.0818 45.1803 52.6159 45.0697 53.1558 45.0697C53.6957 45.0697 54.2299 45.1803 54.7253 45.3947C56.5235 46.1033 56.1594 48.1809 56.1594 48.1809C56.1594 48.1809 61.3507 48.0087 62.2399 48.9629H38.903C38.903 48.9629 39.3829 47.8026 43.0386 48.1922Z" stroke="#263238" stroke-linecap="round" stroke-linejoin="round"/>
<path d="M66.0028 9.66241C55.9025 10.6815 44.6137 12.9511 44.6137 12.9511L43.1091 12.5615C50.2849 9.73863 66.0028 5.5918 66.0028 5.5918C66.0028 5.5918 81.7207 9.74145 88.8965 12.5615L87.3919 12.9511C87.3919 12.9511 76.1031 10.6815 66.0028 9.66241Z" fill="#B0D8CB"/>
<mask id="mask5_53_1117" style="mask-type:luminance" maskUnits="userSpaceOnUse" x="43" y="5" width="46" height="8">
<path d="M66.0028 9.66241C55.9025 10.6815 44.6137 12.9511 44.6137 12.9511L43.1091 12.5615C50.2849 9.73863 66.0028 5.5918 66.0028 5.5918C66.0028 5.5918 81.7207 9.74145 88.8965 12.5615L87.3919 12.9511C87.3919 12.9511 76.1031 10.6815 66.0028 9.66241Z" fill="white"/>
</mask>
<g mask="url(#mask5_53_1117)">
<path opacity="0.2" d="M88.4872 12.6689L87.3919 12.9511C87.3919 12.9511 76.1003 10.6928 66.0028 9.66247C55.9025 10.6787 44.6137 12.9511 44.6137 12.9511L43.5184 12.6689C52.1706 9.87701 66.0028 6.48389 66.0028 6.48389C66.0028 6.48389 79.835 9.87701 88.4872 12.6689Z" fill="black" fill-opacity="0.7"/>
</g>
<path d="M66.0028 9.66241C55.9025 10.6815 44.6137 12.9511 44.6137 12.9511L43.1091 12.5615C50.2849 9.73863 66.0028 5.5918 66.0028 5.5918C66.0028 5.5918 81.7207 9.74145 88.8965 12.5615L87.3919 12.9511C87.3919 12.9511 76.1031 10.6815 66.0028 9.66241Z" stroke="#263238" stroke-linecap="round" stroke-linejoin="round"/>
<path d="M84.5972 11.4775C85.605 11.8022 86.5478 12.1268 87.3919 12.4401" stroke="#263238" stroke-linecap="round" stroke-linejoin="round"/>
<path d="M68.0945 6.98071C71.5215 7.81064 78.4856 9.54955 83.9028 11.2546" stroke="#263238" stroke-linecap="round" stroke-linejoin="round"/>
<path d="M50.8015 10.5122C56.0352 8.99062 63.5045 6.87909 66.0028 6.48389" stroke="#263238" stroke-linecap="round" stroke-linejoin="round"/>
<path d="M46.968 11.6357L49.5623 10.8735" stroke="#263238" stroke-linecap="round" stroke-linejoin="round"/>
<path d="M45.3647 12.1127L45.8954 11.9547" stroke="#263238" stroke-linecap="round" stroke-linejoin="round"/>
<path d="M74.6127 19.0175C74.6127 19.0175 100.97 23.1841 127.161 28.6775C126.921 28.938 126.63 29.1472 126.307 29.2928C125.984 29.4383 125.635 29.517 125.281 29.5243C123.988 29.6006 100.722 27.7233 77.9493 26.6647L74.6127 19.0175Z" fill="#B0D8CB"/>
<mask id="mask6_53_1117" style="mask-type:luminance" maskUnits="userSpaceOnUse" x="74" y="19" width="54" height="11">
<path d="M74.6127 19.0175C74.6127 19.0175 100.97 23.1841 127.161 28.6775C126.921 28.938 126.63 29.1472 126.307 29.2928C125.984 29.4383 125.635 29.517 125.281 29.5243C123.988 29.6006 100.722 27.7233 77.9493 26.6647L74.6127 19.0175Z" fill="white"/>
</mask>
<g mask="url(#mask6_53_1117)">
<path opacity="0.2" d="M76.0636 22.3401L77.9465 26.6535C100.733 27.7092 123.988 29.5893 125.281 29.5102C125.575 29.4925 125.866 29.4345 126.145 29.338C125.939 29.0839 125.653 28.906 125.334 28.8327C121.382 27.9068 102.108 23.5596 76.3064 20.5475L76.0636 22.3401Z" fill="black" fill-opacity="0.7"/>
</g>
<path d="M74.6127 19.0175C74.6127 19.0175 100.97 23.1841 127.161 28.6775C126.921 28.938 126.63 29.1472 126.307 29.2928C125.984 29.4383 125.635 29.517 125.281 29.5243C123.988 29.6006 100.722 27.7233 77.9493 26.6647L74.6127 19.0175Z" stroke="#263238" stroke-linecap="round" stroke-linejoin="round"/>
<path d="M81.9042 26.8398C81.9042 26.8398 83.3523 25.7276 83.7814 25.4424C84.2105 25.1573 84.0157 28.7339 83.2338 29.0021C82.4518 29.2703 81.9042 26.8398 81.9042 26.8398Z" fill="#B0D8CB" stroke="#263238" stroke-linecap="round" stroke-linejoin="round"/>
<path d="M98.5818 27.7854C98.5818 27.7854 99.5981 26.7071 99.8719 26.7381C100.146 26.7692 99.68 29.6147 99.2283 29.6796C98.7766 29.7445 98.5818 27.7854 98.5818 27.7854Z" fill="#B0D8CB" stroke="#263238" stroke-linecap="round" stroke-linejoin="round"/>
<path d="M57.393 19.0175C57.393 19.0175 31.0356 23.1841 4.84479 28.6775C5.08499 28.938 5.37533 29.1472 5.69839 29.2928C6.02145 29.4383 6.37058 29.517 6.72484 29.5243C8.01772 29.6006 31.284 27.7233 54.0563 26.6647L57.393 19.0175Z" fill="#B0D8CB"/>
<mask id="mask7_53_1117" style="mask-type:luminance" maskUnits="userSpaceOnUse" x="4" y="19" width="54" height="11">
<path d="M57.393 19.0175C57.393 19.0175 31.0356 23.1841 4.84479 28.6775C5.08499 28.938 5.37533 29.1472 5.69839 29.2928C6.02145 29.4383 6.37058 29.517 6.72484 29.5243C8.01772 29.6006 31.284 27.7233 54.0563 26.6647L57.393 19.0175Z" fill="white"/>
</mask>
<g mask="url(#mask7_53_1117)">
<path opacity="0.2" d="M55.942 22.3401L54.0592 26.6535C31.2812 27.7092 8.01773 29.5893 6.72202 29.5102C6.42759 29.4925 6.13696 29.4345 5.85822 29.338C6.06427 29.0839 6.34948 28.906 6.66839 28.8327C10.6204 27.9068 29.8952 23.5596 55.6964 20.5475L55.942 22.3401Z" fill="black" fill-opacity="0.7"/>
</g>
<path d="M57.393 19.0175C57.393 19.0175 31.0356 23.1841 4.84479 28.6775C5.08499 28.938 5.37533 29.1472 5.69839 29.2928C6.02145 29.4383 6.37058 29.517 6.72484 29.5243C8.01772 29.6006 31.284 27.7233 54.0563 26.6647L57.393 19.0175Z" stroke="#263238" stroke-linecap="round" stroke-linejoin="round"/>
<path d="M50.1015 26.8398C50.1015 26.8398 48.6533 25.7276 48.2243 25.4424C47.7952 25.1573 47.99 28.7339 48.7719 29.0021C49.5538 29.2703 50.1015 26.8398 50.1015 26.8398Z" fill="#B0D8CB" stroke="#263238" stroke-linecap="round" stroke-linejoin="round"/>
<path d="M33.4238 27.7854C33.4238 27.7854 32.4075 26.7071 32.1337 26.7381C31.8599 26.7692 32.3257 29.6147 32.7773 29.6796C33.229 29.7445 33.4238 27.7854 33.4238 27.7854Z" fill="#B0D8CB" stroke="#263238" stroke-linecap="round" stroke-linejoin="round"/>
<path d="M79.7306 22.2215L77.4271 21.9618" stroke="#263238" stroke-linecap="round" stroke-linejoin="round"/>
<path d="M82.8047 22.6055L80.8795 22.3712" stroke="#263238" stroke-linecap="round" stroke-linejoin="round"/>
<path d="M119.141 28.0338C107.567 26.1453 95.711 24.4516 84.1541 22.7607" stroke="#263238" stroke-linecap="round" stroke-linejoin="round"/>
<path d="M121.851 28.4573L120.485 28.2512" stroke="#263238" stroke-linecap="round" stroke-linejoin="round"/>
<path d="M124.409 29.4425C124.524 29.276 124.643 29.1122 124.761 28.9457L123.333 28.7057" stroke="#263238" stroke-linecap="round" stroke-linejoin="round"/>
<path d="M93.8733 32.3859C96.3265 31.4378 97.5467 28.6804 96.5986 26.2272C95.6505 23.7739 92.8931 22.5537 90.4398 23.5019C87.9866 24.45 86.7664 27.2073 87.7145 29.6606C88.6626 32.1139 91.42 33.334 93.8733 32.3859Z" fill="#B0D8CB" stroke="#263238" stroke-linecap="round" stroke-linejoin="round"/>
<path d="M91.0983 24.2088C91.7491 23.9437 92.4638 23.8773 93.1522 24.0182C93.8405 24.1591 94.4717 24.5009 94.9659 25.0004C95.4601 25.4999 95.7952 26.1347 95.9288 26.8245C96.0623 27.5144 95.9884 28.2284 95.7163 28.8762C95.4442 29.5241 94.9862 30.0767 94.4002 30.4644C93.8141 30.852 93.1263 31.0572 92.4236 31.0541C91.721 31.0509 91.035 30.8396 90.4524 30.4467C89.8699 30.0538 89.4168 29.4971 89.1506 28.8468C88.9735 28.4145 88.8834 27.9514 88.8855 27.4842C88.8876 27.0169 88.9818 26.5547 89.1627 26.1239C89.3436 25.6932 89.6077 25.3023 89.9399 24.9737C90.272 24.645 90.6657 24.3851 91.0983 24.2088Z" fill="#263238"/>
<g opacity="0.5">
<path d="M92.284 27.2463C92.284 27.2463 92.5945 26.0748 93.67 26.0522" stroke="white" stroke-linecap="round" stroke-linejoin="round"/>
<path d="M91.8408 28.4855C91.8408 28.4855 91.5303 29.6542 90.4548 29.6796" stroke="white" stroke-linecap="round" stroke-linejoin="round"/>
<path d="M92.6792 28.0875C92.6792 28.0875 93.8507 28.398 93.8761 29.4735" stroke="white" stroke-linecap="round" stroke-linejoin="round"/>
<path d="M91.4428 27.6443C91.4428 27.6443 90.2713 27.3338 90.2487 26.2583" stroke="white" stroke-linecap="round" stroke-linejoin="round"/>
<path d="M92.6566 27.585C92.6566 27.585 93.7039 26.9753 94.4802 27.7205" stroke="white" stroke-linecap="round" stroke-linejoin="round"/>
<path d="M91.4682 28.1468C91.4682 28.1468 90.4209 28.7537 89.6418 28.0113" stroke="white" stroke-linecap="round" stroke-linejoin="round"/>
<path d="M92.3433 28.4601C92.3433 28.4601 92.9502 29.5074 92.2078 30.2837" stroke="white" stroke-linecap="round" stroke-linejoin="round"/>
<path d="M91.7815 27.2717C91.7815 27.2717 91.1718 26.2244 91.9142 25.4453" stroke="white" stroke-linecap="round" stroke-linejoin="round"/>
<path d="M90.8443 24.7819C90.8443 24.7819 92.5776 23.7544 94.1443 24.8976C96.0554 26.2921 95.4823 28.6267 94.9911 29.3719" stroke="white" stroke-linecap="round" stroke-linejoin="round"/>
</g>
<path d="M108.262 34.281C110.639 34.281 112.566 32.3536 112.566 29.9761C112.566 27.5985 110.639 25.6711 108.262 25.6711C105.884 25.6711 103.957 27.5985 103.957 29.9761C103.957 32.3536 105.884 34.281 108.262 34.281Z" fill="#B0D8CB" stroke="#263238" stroke-linecap="round" stroke-linejoin="round"/>
<path d="M109.441 32.6639C111.145 32.1641 112.121 30.3775 111.621 28.6736C111.122 26.9696 109.335 25.9936 107.631 26.4934C105.927 26.9933 104.951 28.7799 105.451 30.4838C105.951 32.1878 107.737 33.1638 109.441 32.6639Z" fill="#263238"/>
<g opacity="0.5">
<path d="M108.38 29.3494C108.38 29.3494 108.662 28.2908 109.633 28.2682" stroke="white" stroke-linecap="round" stroke-linejoin="round"/>
<path d="M107.979 30.47C107.979 30.47 107.697 31.5286 106.726 31.5512" stroke="white" stroke-linecap="round" stroke-linejoin="round"/>
<path d="M108.739 30.1087C108.739 30.1087 109.797 30.391 109.82 31.3649" stroke="white" stroke-linecap="round" stroke-linejoin="round"/>
<path d="M107.621 29.7107C107.621 29.7107 106.559 29.4284 106.54 28.4573" stroke="white" stroke-linecap="round" stroke-linejoin="round"/>
<path d="M108.716 29.6627C108.716 29.6627 109.665 29.1151 110.367 29.7869" stroke="white" stroke-linecap="round" stroke-linejoin="round"/>
<path d="M107.643 30.1652C107.643 30.1652 106.695 30.7128 105.992 30.041" stroke="white" stroke-linecap="round" stroke-linejoin="round"/>
<path d="M108.434 30.4474C108.434 30.4474 108.984 31.3959 108.312 32.0988" stroke="white" stroke-linecap="round" stroke-linejoin="round"/>
<path d="M107.926 29.3804C107.926 29.3804 107.375 28.4347 108.047 27.729" stroke="white" stroke-linecap="round" stroke-linejoin="round"/>
<path d="M107.079 27.122C107.079 27.122 108.645 26.1905 110.063 27.2265C111.79 28.4883 111.271 30.5998 110.822 31.2717" stroke="white" stroke-linecap="round" stroke-linejoin="round"/>
</g>
<path d="M52.2751 22.2215L54.5786 21.9618" stroke="#263238" stroke-linecap="round" stroke-linejoin="round"/>
<path d="M49.2009 22.6055L51.1261 22.3712" stroke="#263238" stroke-linecap="round" stroke-linejoin="round"/>
<path d="M12.8646 28.0338C24.4385 26.1453 36.2947 24.4516 47.8516 22.7607" stroke="#263238" stroke-linecap="round" stroke-linejoin="round"/>
<path d="M10.1547 28.4573L11.5209 28.2512" stroke="#263238" stroke-linecap="round" stroke-linejoin="round"/>
<path d="M7.59712 29.4425C7.48139 29.276 7.36282 29.1122 7.24426 28.9457L8.67265 28.7057" stroke="#263238" stroke-linecap="round" stroke-linejoin="round"/>
<path d="M43.8497 30.5349C45.281 28.3284 44.6526 25.3793 42.446 23.948C40.2395 22.5167 37.2904 23.1451 35.8591 25.3517C34.4278 27.5582 35.0563 30.5073 37.2628 31.9386C39.4694 33.3699 42.4184 32.7414 43.8497 30.5349Z" fill="#B0D8CB" stroke="#263238" stroke-linecap="round" stroke-linejoin="round"/>
<path d="M41.0221 30.7407C42.8102 29.9311 43.6034 27.8252 42.7938 26.0372C41.9842 24.2491 39.8783 23.4559 38.0902 24.2655C36.3021 25.0751 35.5089 27.1809 36.3185 28.969C37.1281 30.7571 39.234 31.5503 41.0221 30.7407Z" fill="#263238"/>
<g opacity="0.5">
<path d="M39.7217 27.2463C39.7217 27.2463 39.4112 26.0748 38.3356 26.0522" stroke="white" stroke-linecap="round" stroke-linejoin="round"/>
<path d="M40.1649 28.4855C40.1649 28.4855 40.4754 29.6542 41.5509 29.6796" stroke="white" stroke-linecap="round" stroke-linejoin="round"/>
<path d="M39.3265 28.0875C39.3265 28.0875 38.155 28.398 38.1296 29.4735" stroke="white" stroke-linecap="round" stroke-linejoin="round"/>
<path d="M40.5629 27.6443C40.5629 27.6443 41.7344 27.3338 41.7569 26.2583" stroke="white" stroke-linecap="round" stroke-linejoin="round"/>
<path d="M39.349 27.585C39.349 27.585 38.3017 26.9753 37.5255 27.7205" stroke="white" stroke-linecap="round" stroke-linejoin="round"/>
<path d="M40.5375 28.1468C40.5375 28.1468 41.5848 28.7537 42.3639 28.0113" stroke="white" stroke-linecap="round" stroke-linejoin="round"/>
<path d="M39.6624 28.4601C39.6624 28.4601 39.0555 29.5074 39.7979 30.2837" stroke="white" stroke-linecap="round" stroke-linejoin="round"/>
<path d="M40.2241 27.2717C40.2241 27.2717 40.8339 26.2244 40.0914 25.4453" stroke="white" stroke-linecap="round" stroke-linejoin="round"/>
<path d="M41.1614 24.7819C41.1614 24.7819 39.4281 23.7544 37.8614 24.8976C35.9503 26.2921 36.5233 28.6267 37.0145 29.3719" stroke="white" stroke-linecap="round" stroke-linejoin="round"/>
</g>
<path d="M23.7441 34.281C26.1216 34.281 28.049 32.3536 28.049 29.9761C28.049 27.5985 26.1216 25.6711 23.7441 25.6711C21.3665 25.6711 19.4391 27.5985 19.4391 29.9761C19.4391 32.3536 21.3665 34.281 23.7441 34.281Z" fill="#B0D8CB" stroke="#263238" stroke-linecap="round" stroke-linejoin="round"/>
<path d="M22.7081 26.4559C23.3256 26.304 23.9743 26.3386 24.5721 26.5554C25.17 26.7722 25.6901 27.1614 26.0667 27.6738C26.4434 28.1862 26.6596 28.7988 26.6881 29.4341C26.7166 30.0694 26.556 30.6988 26.2267 31.2429C25.8975 31.7869 25.4143 32.2211 24.8382 32.4905C24.2622 32.76 23.6192 32.8525 22.9905 32.7565C22.3619 32.6605 21.7759 32.3802 21.3065 31.9511C20.8372 31.522 20.5056 30.9633 20.3538 30.3458C20.1502 29.5178 20.2838 28.6428 20.7253 27.9133C21.1668 27.1838 21.88 26.6595 22.7081 26.4559Z" fill="#263238"/>
<g opacity="0.5">
<path d="M23.6255 29.3494C23.6255 29.3494 23.3432 28.2908 22.3721 28.2682" stroke="white" stroke-linecap="round" stroke-linejoin="round"/>
<path d="M24.0264 30.47C24.0264 30.47 24.3087 31.5286 25.2797 31.5512" stroke="white" stroke-linecap="round" stroke-linejoin="round"/>
<path d="M23.267 30.1087C23.267 30.1087 22.2084 30.391 22.1859 31.3649" stroke="white" stroke-linecap="round" stroke-linejoin="round"/>
<path d="M24.3848 29.7107C24.3848 29.7107 25.4462 29.4284 25.466 28.4573" stroke="white" stroke-linecap="round" stroke-linejoin="round"/>
<path d="M23.2896 29.6627C23.2896 29.6627 22.3411 29.1151 21.6382 29.7869" stroke="white" stroke-linecap="round" stroke-linejoin="round"/>
<path d="M24.3623 30.1652C24.3623 30.1652 25.3108 30.7128 26.0137 30.041" stroke="white" stroke-linecap="round" stroke-linejoin="round"/>
<path d="M23.5719 30.4474C23.5719 30.4474 23.0073 31.3959 23.6933 32.0988" stroke="white" stroke-linecap="round" stroke-linejoin="round"/>
<path d="M24.0799 29.3804C24.0799 29.3804 24.6445 28.4347 23.9586 27.729" stroke="white" stroke-linecap="round" stroke-linejoin="round"/>
<path d="M24.9269 27.122C24.9269 27.122 23.3602 26.1905 21.9431 27.2265C20.2155 28.4883 20.7349 30.5998 21.1837 31.2717" stroke="white" stroke-linecap="round" stroke-linejoin="round"/>
</g>
<path d="M65.9633 6.25244H66.0395C66.1377 6.25244 66.235 6.27179 66.3258 6.30939C66.4165 6.34698 66.499 6.40208 66.5685 6.47155C66.6379 6.54101 66.693 6.62348 66.7306 6.71424C66.7682 6.80499 66.7876 6.90227 66.7876 7.00051V15.4918H65.2152V7.00051C65.2152 6.90227 65.2346 6.80499 65.2721 6.71424C65.3097 6.62348 65.3648 6.54101 65.4343 6.47155C65.5038 6.40208 65.5862 6.34698 65.677 6.30939C65.7678 6.27179 65.865 6.25244 65.9633 6.25244Z" fill="#B0D8CB" stroke="#263238" stroke-linecap="round" stroke-linejoin="round"/>
<path d="M77.619 28.9457L66.0028 30.0551L54.3866 28.9457C54.3866 28.9457 51.0415 33.897 51.1205 35.2407C51.1996 36.5844 52.4529 38.1003 66.0028 38.1003C79.5527 38.1003 80.8174 36.5816 80.8851 35.2407C80.9529 33.8999 77.619 28.9457 77.619 28.9457Z" fill="#B0D8CB"/>
<mask id="mask8_53_1117" style="mask-type:luminance" maskUnits="userSpaceOnUse" x="51" y="28" width="30" height="11">
<path d="M77.619 28.9457L66.0028 30.0551L54.3866 28.9457C54.3866 28.9457 51.0415 33.897 51.1205 35.2407C51.1996 36.5844 52.4529 38.1003 66.0028 38.1003C79.5527 38.1003 80.8174 36.5816 80.8851 35.2407C80.9529 33.8999 77.619 28.9457 77.619 28.9457Z" fill="white"/>
</mask>
<g mask="url(#mask8_53_1117)">
<path opacity="0.2" d="M79.7306 36.7199C78.1611 37.4934 74.4941 38.089 66.0029 38.089C58.2258 38.089 54.4967 37.5893 52.7183 36.909C50.9625 36.1073 54.8157 34.6507 54.8157 34.6507C54.8157 34.6507 54.0818 33.5498 55.2166 32.0932C56.3514 30.6366 77.6558 32.3755 77.6558 32.3755C77.6558 32.3755 77.8449 33.3098 77.2041 34.6564C77.1985 34.6564 80.1315 35.1955 79.7306 36.7199Z" fill="black" fill-opacity="0.7"/>
</g>
<path d="M77.619 28.9457L66.0028 30.0551L54.3866 28.9457C54.3866 28.9457 51.0415 33.897 51.1205 35.2407C51.1996 36.5844 52.4529 38.1003 66.0028 38.1003C79.5527 38.1003 80.8174 36.5816 80.8851 35.2407C80.9529 33.8999 77.619 28.9457 77.619 28.9457Z" stroke="#263238" stroke-linecap="round" stroke-linejoin="round"/>
<path d="M66.0028 13.2136C64.1743 13.2119 62.3723 13.6519 60.7504 14.4963C59.1285 15.3407 57.7346 16.5644 56.6873 18.0634C51.3492 25.736 51.0415 38.1059 66.0028 38.1059C80.9642 38.1059 80.6621 25.7416 75.3184 18.0634C74.2711 16.5644 72.8772 15.3407 71.2552 14.4963C69.6333 13.6519 67.8314 13.2119 66.0028 13.2136Z" fill="#B0D8CB"/>
<mask id="mask9_53_1117" style="mask-type:luminance" maskUnits="userSpaceOnUse" x="53" y="13" width="26" height="26">
<path d="M66.0028 13.2136C64.1743 13.2119 62.3723 13.6519 60.7504 14.4963C59.1285 15.3407 57.7346 16.5644 56.6873 18.0634C51.3492 25.736 51.0415 38.1059 66.0028 38.1059C80.9642 38.1059 80.6621 25.7416 75.3184 18.0634C74.2711 16.5644 72.8772 15.3407 71.2552 14.4963C69.6333 13.6519 67.8314 13.2119 66.0028 13.2136Z" fill="white"/>
</mask>
<g mask="url(#mask9_53_1117)">
<path opacity="0.2" d="M76.6649 34.1398C76.4737 34.4296 76.2385 34.6877 75.9676 34.9048C75.7305 35.0911 75.3297 35.4186 74.8215 35.8477C72.8145 37.2422 69.9407 38.106 66.0141 38.106C61.122 38.106 57.8616 36.7849 55.8771 34.7354C54.5419 32.8554 53.8135 31.029 54.8213 29.5865C55.911 28.0254 64.3175 23.9407 66.0875 23.9407C67.8575 23.9407 76.6903 28.9118 77.4384 29.4679C78.0566 29.945 77.7319 32.5674 76.6649 34.1398Z" fill="black" fill-opacity="0.7"/>
</g>
<path d="M66.0028 13.2136C64.1743 13.2119 62.3723 13.6519 60.7504 14.4963C59.1285 15.3407 57.7346 16.5644 56.6873 18.0634C51.3492 25.736 51.0415 38.1059 66.0028 38.1059C80.9642 38.1059 80.6621 25.7416 75.3184 18.0634C74.2711 16.5644 72.8772 15.3407 71.2552 14.4963C69.6333 13.6519 67.8314 13.2119 66.0028 13.2136Z" stroke="#263238" stroke-linecap="round" stroke-linejoin="round"/>
<path d="M59.7247 17.9731C59.1597 18.9147 58.7086 19.9201 58.381 20.9682C59.3154 20.4855 60.3853 20.0169 61.2039 19.8814C61.3268 19.1207 61.4889 18.367 61.6895 17.623C60.9979 17.7162 60.3345 17.8319 59.7247 17.9731Z" fill="#263238"/>
<path d="M72.281 17.9731C71.6712 17.8319 71.0078 17.7162 70.3049 17.623C70.5054 18.3485 70.6691 19.1587 70.7905 19.8814C71.7783 20.1077 72.7288 20.4737 73.6134 20.9682C73.2892 19.9207 72.8419 18.9153 72.281 17.9731Z" fill="#263238"/>
<path d="M69.9153 17.575C68.7177 17.4363 67.5133 17.3637 66.3077 17.3577V20.1269C67.3634 20.0733 68.8342 19.7769 70.4122 19.8446C70.2371 18.9357 70.0734 18.1678 69.9153 17.575Z" fill="#263238"/>
<path d="M73.9239 21.1206L75.1772 21.3803C74.7579 20.2914 74.2 19.261 73.5174 18.3146C73.2351 18.2158 72.9076 18.1283 72.5745 18.0323C73.1371 19.0087 73.5896 20.0445 73.9239 21.1206Z" fill="#263238"/>
<path d="M59.4311 18.0436C59.112 18.1206 58.7972 18.2148 58.4883 18.3259C58.4883 18.3259 57.5539 19.3365 56.8284 21.3916L58.0818 21.1319C58.4161 20.0558 58.8686 19.02 59.4311 18.0436Z" fill="#263238"/>
<path d="M65.825 17.3549C64.5771 17.3604 63.3303 17.4339 62.0903 17.575C61.9323 18.1679 61.7572 18.9329 61.5935 19.8334C63.2336 19.7656 64.7608 20.0874 65.8278 20.1157L65.825 17.3549Z" fill="#263238"/>
<path d="M66.0028 35.0008C65.4099 34.9584 63.7896 34.8088 63.0811 34.4672L63.4791 36.161C64.2808 36.4576 65.1311 36.6012 65.9858 36.5844L66.0028 36.4658L66.0197 36.5844C66.8744 36.6012 67.7247 36.4576 68.5264 36.161L68.9245 34.4672C68.2159 34.8088 66.5956 34.9584 66.0028 35.0008Z" fill="#263238"/>
<path d="M66.2428 35.1956H65.7629V38.9528H66.2428V35.1956Z" fill="#757575" stroke="#263238" stroke-linecap="round" stroke-linejoin="round"/>
<path d="M66.0028 40.034C66.4347 40.034 66.7848 39.684 66.7848 39.2521C66.7848 38.8202 66.4347 38.4702 66.0028 38.4702C65.571 38.4702 65.2209 38.8202 65.2209 39.2521C65.2209 39.684 65.571 40.034 66.0028 40.034Z" fill="#757575" stroke="#263238" stroke-linecap="round" stroke-linejoin="round"/>
<path d="M65.0797 37.0615H63.9082C63.6822 37.0615 63.4989 37.2447 63.4989 37.4708V41.1885C63.4989 41.4146 63.6822 41.5979 63.9082 41.5979H65.0797C65.3058 41.5979 65.489 41.4146 65.489 41.1885V37.4708C65.489 37.2447 65.3058 37.0615 65.0797 37.0615Z" fill="#263238"/>
<path d="M68.1002 37.0615H66.9287C66.7027 37.0615 66.5194 37.2447 66.5194 37.4708V41.1885C66.5194 41.4146 66.7027 41.5979 66.9287 41.5979H68.1002C68.3263 41.5979 68.5096 41.4146 68.5096 41.1885V37.4708C68.5096 37.2447 68.3263 37.0615 68.1002 37.0615Z" fill="#263238"/>
<path d="M73.2181 37.1123C73.2181 37.1123 76.8258 36.7058 78.0904 35.9125L77.8082 36.7594C76.0924 37.2467 74.3254 37.5309 72.5435 37.6063L73.2181 37.1123Z" fill="#263238"/>
<path d="M58.7875 37.1123C58.7875 37.1123 55.1798 36.7058 53.9152 35.9125L54.1975 36.7594C55.9132 37.2467 57.6802 37.5309 59.4622 37.6063L58.7875 37.1123Z" fill="#263238"/>
<path d="M77.1985 39.4751H76.7948V36.7792L77.1985 36.686V39.4751Z" fill="#757575" stroke="#263238" stroke-linecap="round" stroke-linejoin="round"/>
<path d="M74.8018 39.4751H74.3981V37.1236L74.8018 37.0728V39.4751Z" fill="#757575" stroke="#263238" stroke-linecap="round" stroke-linejoin="round"/>
<path d="M77.6501 39.7263C77.6506 39.8558 77.6128 39.9826 77.5413 40.0906C77.4698 40.1986 77.3679 40.283 77.2484 40.3331C77.129 40.3832 76.9973 40.3967 76.8702 40.372C76.743 40.3473 76.6261 40.2854 76.5341 40.1942C76.4421 40.103 76.3792 39.9866 76.3534 39.8597C76.3276 39.7327 76.34 39.601 76.3891 39.4811C76.4381 39.3612 76.5216 39.2586 76.629 39.1862C76.7364 39.1137 76.8628 39.0748 76.9924 39.0742C77.0784 39.0739 77.1636 39.0904 77.2432 39.123C77.3228 39.1556 77.3952 39.2035 77.4563 39.264C77.5174 39.3246 77.5659 39.3966 77.5992 39.4759C77.6324 39.5552 77.6497 39.6403 77.6501 39.7263Z" fill="#757575" stroke="#263238" stroke-linecap="round" stroke-linejoin="round"/>
<path d="M75.2534 39.7263C75.254 39.8558 75.2161 39.9826 75.1446 40.0906C75.0731 40.1986 74.9712 40.283 74.8517 40.3331C74.7323 40.3832 74.6007 40.3967 74.4735 40.372C74.3464 40.3473 74.2294 40.2854 74.1374 40.1942C74.0454 40.103 73.9826 39.9866 73.9567 39.8597C73.9309 39.7327 73.9433 39.601 73.9924 39.4811C74.0414 39.3612 74.1249 39.2586 74.2323 39.1862C74.3397 39.1137 74.4662 39.0748 74.5957 39.0742C74.7692 39.0742 74.9356 39.1427 75.0588 39.2649C75.182 39.387 75.2519 39.5528 75.2534 39.7263Z" fill="#757575" stroke="#263238" stroke-linecap="round" stroke-linejoin="round"/>
<path d="M76.312 37.897H75.2817C75.1071 37.897 74.9655 38.0386 74.9655 38.2132V41.372C74.9655 41.5466 75.1071 41.6882 75.2817 41.6882H76.312C76.4866 41.6882 76.6282 41.5466 76.6282 41.372V38.2132C76.6282 38.0386 76.4866 37.897 76.312 37.897Z" fill="#263238"/>
<path d="M78.7736 37.897H77.7433C77.5687 37.897 77.4271 38.0386 77.4271 38.2132V41.372C77.4271 41.5466 77.5687 41.6882 77.7433 41.6882H78.7736C78.9483 41.6882 79.0898 41.5466 79.0898 41.372V38.2132C79.0898 38.0386 78.9483 37.897 78.7736 37.897Z" fill="#263238"/>
<path d="M73.8534 37.897H72.823C72.6484 37.897 72.5068 38.0386 72.5068 38.2132V41.372C72.5068 41.5466 72.6484 41.6882 72.823 41.6882H73.8534C74.028 41.6882 74.1695 41.5466 74.1695 41.372V38.2132C74.1695 38.0386 74.028 37.897 73.8534 37.897Z" fill="#263238"/>
<path d="M54.8073 39.4751H55.2109V36.7792L54.8073 36.686V39.4751Z" fill="#757575" stroke="#263238" stroke-linecap="round" stroke-linejoin="round"/>
<path d="M57.2039 39.4751H57.6075V37.1236L57.2039 37.0728V39.4751Z" fill="#757575" stroke="#263238" stroke-linecap="round" stroke-linejoin="round"/>
<path d="M54.3556 39.7263C54.355 39.8558 54.3929 39.9826 54.4644 40.0906C54.5359 40.1986 54.6378 40.283 54.7573 40.3331C54.8767 40.3832 55.0084 40.3967 55.1355 40.372C55.2626 40.3473 55.3796 40.2854 55.4716 40.1942C55.5636 40.103 55.6265 39.9866 55.6523 39.8597C55.6781 39.7327 55.6657 39.601 55.6166 39.4811C55.5676 39.3612 55.4841 39.2586 55.3767 39.1862C55.2693 39.1137 55.1429 39.0748 55.0133 39.0742C54.9273 39.0739 54.8421 39.0904 54.7625 39.123C54.6829 39.1556 54.6105 39.2035 54.5494 39.264C54.4883 39.3246 54.4398 39.3966 54.4065 39.4759C54.3733 39.5552 54.356 39.6403 54.3556 39.7263Z" fill="#757575" stroke="#263238" stroke-linecap="round" stroke-linejoin="round"/>
<path d="M56.7522 39.7263C56.7516 39.8558 56.7895 39.9826 56.861 40.0906C56.9325 40.1986 57.0344 40.283 57.1539 40.3331C57.2733 40.3832 57.405 40.3967 57.5321 40.372C57.6593 40.3473 57.7762 40.2854 57.8682 40.1942C57.9602 40.103 58.0231 39.9866 58.0489 39.8597C58.0747 39.7327 58.0623 39.601 58.0132 39.4811C57.9642 39.3612 57.8807 39.2586 57.7733 39.1862C57.6659 39.1137 57.5395 39.0748 57.4099 39.0742C57.2365 39.0742 57.07 39.1427 56.9468 39.2649C56.8236 39.387 56.7537 39.5528 56.7522 39.7263Z" fill="#757575" stroke="#263238" stroke-linecap="round" stroke-linejoin="round"/>
<path d="M56.7212 37.897H55.6908C55.5162 37.897 55.3746 38.0386 55.3746 38.2132V41.372C55.3746 41.5466 55.5162 41.6882 55.6908 41.6882H56.7212C56.8958 41.6882 57.0373 41.5466 57.0373 41.372V38.2132C57.0373 38.0386 56.8958 37.897 56.7212 37.897Z" fill="#263238"/>
<path d="M54.2624 37.897H53.2321C53.0574 37.897 52.9159 38.0386 52.9159 38.2132V41.372C52.9159 41.5466 53.0574 41.6882 53.2321 41.6882H54.2624C54.437 41.6882 54.5786 41.5466 54.5786 41.372V38.2132C54.5786 38.0386 54.437 37.897 54.2624 37.897Z" fill="#263238"/>
<path d="M59.1827 37.897H58.1523C57.9777 37.897 57.8362 38.0386 57.8362 38.2132V41.372C57.8362 41.5466 57.9777 41.6882 58.1523 41.6882H59.1827C59.3573 41.6882 59.4989 41.5466 59.4989 41.372V38.2132C59.4989 38.0386 59.3573 37.897 59.1827 37.897Z" fill="#263238"/>
<path d="M66.3077 9.46771V13.2137" stroke="#263238" stroke-linecap="round" stroke-linejoin="round"/>
<path d="M66.3077 7.07947V8.14935" stroke="#263238" stroke-linecap="round" stroke-linejoin="round"/>
<path d="M85.128 67.9073L84.2529 68.2206C84.181 68.2466 84.1046 68.2582 84.0282 68.2547C83.9518 68.2512 83.8769 68.2327 83.8076 68.2002C83.7384 68.1677 83.6763 68.1218 83.6248 68.0653C83.5733 68.0087 83.5335 67.9425 83.5076 67.8706L76.2584 47.5965C76.2584 47.5965 76.4165 47.2408 77.1476 46.9783C77.489 46.8323 77.8689 46.8026 78.2288 46.8936L85.4808 67.1648C85.5077 67.234 85.5208 67.3077 85.5192 67.3819C85.5175 67.4561 85.5013 67.5292 85.4714 67.5971C85.4416 67.665 85.3986 67.7263 85.345 67.7776C85.2914 67.8289 85.2282 67.8691 85.159 67.896L85.128 67.9073Z" fill="#263238"/>
<path d="M78.2288 46.8823L82.9825 60.1725C82.6223 60.0824 82.2424 60.1131 81.9013 60.26C81.1702 60.5226 81.0093 60.8782 81.0093 60.8782L76.2556 47.588C76.2556 47.588 76.4165 47.2324 77.1476 46.9698C77.4886 46.8229 77.8685 46.7922 78.2288 46.8823Z" fill="#008158" stroke="#263238" stroke-linecap="round" stroke-linejoin="round"/>
<path d="M81.2944 57.296L81.5908 58.0921" stroke="white" stroke-linecap="round" stroke-linejoin="round"/>
<path d="M77.6162 47.4271C78.7096 50.3629 79.8039 53.2978 80.8992 56.2317" stroke="white" stroke-linecap="round" stroke-linejoin="round"/>
<path d="M83.9282 69.0364C83.9282 69.0364 83.2281 66.7781 82.6409 66.4224C81.9606 66.0216 81.4751 65.2679 81.6162 64.7626C81.8731 63.8592 81.3001 63.4386 81.8364 63.1902C81.8364 63.1902 82.847 64.3504 82.9825 64.0879C83.9282 62.2248 83.3382 61.1831 83.3382 61.1831C84.5577 60.5875 84.5408 61.3864 85.2098 61.7223C85.8788 62.0582 85.6756 61.9622 86.1018 62.6172C86.3841 63.0434 86.3277 63.3991 86.6664 63.6757C87.0051 63.9524 86.8527 65.0449 86.7962 65.6518C86.7398 66.2587 86.6099 67.131 86.6099 67.131L87.0588 68.246L83.9282 69.0364Z" fill="white" stroke="#263238" stroke-linecap="round" stroke-linejoin="round"/>
<path d="M75.3635 84.5849C75.3635 84.5849 81.2465 81.3753 82.4208 80.9377L83.612 80.503C83.612 80.503 84.1343 79.2383 84.6565 79.0915C84.6565 79.0915 83.7617 75.1395 83.7617 73.9539V69.6715L83.502 68.5424C83.502 68.5424 85.2521 66.8684 86.8527 67.5374L87.6347 69.0646C88.0809 69.2114 88.4873 69.4588 88.8226 69.7877C89.1579 70.1167 89.4131 70.5183 89.5684 70.9616C90.164 72.5255 92.109 78.3011 92.4731 80.8841C92.8373 83.467 75.3494 95.8285 75.3494 95.8285L75.3635 84.5849Z" fill="#999999"/>
<mask id="mask10_53_1117" style="mask-type:luminance" maskUnits="userSpaceOnUse" x="75" y="67" width="18" height="29">
<path d="M75.3635 84.5849C75.3635 84.5849 81.2465 81.3753 82.4208 80.9377L83.612 80.503C83.612 80.503 84.1343 79.2383 84.6565 79.0915C84.6565 79.0915 83.7617 75.1395 83.7617 73.9539V69.6715L83.502 68.5424C83.502 68.5424 85.2521 66.8684 86.8527 67.5374L87.6347 69.0646C88.0809 69.2114 88.4873 69.4588 88.8226 69.7877C89.1579 70.1167 89.4131 70.5183 89.5684 70.9616C90.164 72.5255 92.109 78.3011 92.4731 80.8841C92.8373 83.467 75.3494 95.8285 75.3494 95.8285L75.3635 84.5849Z" fill="white"/>
</mask>
<g mask="url(#mask10_53_1117)">
<path opacity="0.2" d="M86.0454 87.5857L85.8252 87.93C81.0263 91.8482 75.3805 95.8342 75.3805 95.8342V84.5849L75.6628 84.4353C76.0425 84.4554 76.4201 84.5054 76.7919 84.5849C79.2676 85.2398 79.6148 90.8517 79.6148 90.8517C81.8788 90.1178 85.9155 87.6619 86.0454 87.5857Z" fill="black" fill-opacity="0.7"/>
</g>
<path d="M75.3635 84.5849C75.3635 84.5849 81.2465 81.3753 82.4208 80.9377L83.612 80.503C83.612 80.503 84.1343 79.2383 84.6565 79.0915C84.6565 79.0915 83.7617 75.1395 83.7617 73.9539V69.6715L83.502 68.5424C83.502 68.5424 85.2521 66.8684 86.8527 67.5374L87.6347 69.0646C88.0809 69.2114 88.4873 69.4588 88.8226 69.7877C89.1579 70.1167 89.4131 70.5183 89.5684 70.9616C90.164 72.5255 92.109 78.3011 92.4731 80.8841C92.8373 83.467 75.3494 95.8285 75.3494 95.8285L75.3635 84.5849Z" stroke="#263238" stroke-linecap="round" stroke-linejoin="round"/>
<path d="M79.1237 86.6259C79.1237 86.6259 79.7249 90.0924 77.0799 94.0557" stroke="#263238" stroke-linecap="round" stroke-linejoin="round"/>
<path d="M83.6262 80.5031C83.6262 80.5031 84.9868 80.2772 86.0482 80.9378" stroke="#263238" stroke-linecap="round" stroke-linejoin="round"/>
<path d="M84.6707 79.0887C84.6707 79.0887 86.1019 78.5241 86.2712 77.3583" stroke="#263238" stroke-linecap="round" stroke-linejoin="round"/>
<path d="M84.8372 69.9313C84.8372 69.9313 86.4575 68.8896 87.6601 69.0844" stroke="#263238" stroke-linecap="round" stroke-linejoin="round"/>
<path d="M46.8777 67.9073L47.7528 68.2206C47.8247 68.2466 47.9011 68.2582 47.9775 68.2547C48.0539 68.2512 48.1288 68.2327 48.198 68.2002C48.2673 68.1677 48.3294 68.1218 48.3809 68.0653C48.4324 68.0087 48.4722 67.9425 48.4981 67.8706L55.7472 47.5965C55.7472 47.5965 55.5892 47.2408 54.858 46.9783C54.5167 46.8323 54.1368 46.8026 53.7769 46.8936L46.5248 67.1648C46.4979 67.234 46.4849 67.3077 46.4865 67.3819C46.4881 67.4561 46.5043 67.5292 46.5342 67.5971C46.5641 67.665 46.6071 67.7263 46.6607 67.7776C46.7143 67.8289 46.7775 67.8691 46.8467 67.896L46.8777 67.9073Z" fill="#263238"/>
<path d="M53.7769 46.8823L49.0231 60.1725C49.3834 60.0824 49.7632 60.1131 50.1043 60.26C50.8354 60.5226 50.9963 60.8782 50.9963 60.8782L55.7501 47.588C55.7501 47.588 55.5892 47.2324 54.8581 46.9698C54.517 46.8229 54.1371 46.7922 53.7769 46.8823Z" fill="#008158" stroke="#263238" stroke-linecap="round" stroke-linejoin="round"/>
<path d="M50.7112 57.296L50.4148 58.0921" stroke="white" stroke-linecap="round" stroke-linejoin="round"/>
<path d="M54.3894 47.4271C53.296 50.3629 52.2017 53.2978 51.1064 56.2317" stroke="white" stroke-linecap="round" stroke-linejoin="round"/>
<path d="M48.0774 69.0364C48.0774 69.0364 48.7775 66.7781 49.3647 66.4224C50.045 66.0216 50.5305 65.2679 50.3894 64.7626C50.1325 63.8592 50.7055 63.4386 50.1692 63.1902C50.1692 63.1902 49.1586 64.3504 49.0231 64.0879C48.0774 62.2248 48.6674 61.1831 48.6674 61.1831C47.4479 60.5875 47.4649 61.3864 46.7958 61.7223C46.1268 62.0582 46.3301 61.9622 45.9038 62.6172C45.6215 63.0434 45.678 63.3991 45.3392 63.6757C45.0005 63.9524 45.1529 65.0449 45.2094 65.6518C45.2658 66.2587 45.3957 67.131 45.3957 67.131L44.9468 68.246L48.0774 69.0364Z" fill="white" stroke="#263238" stroke-linecap="round" stroke-linejoin="round"/>
<path d="M56.6421 84.5849C56.6421 84.5849 50.7592 81.3753 49.5708 80.9377L48.3795 80.503C48.3795 80.503 47.8573 79.2383 47.335 79.0915C47.335 79.0915 48.2299 75.1395 48.2299 73.9539V69.6715L48.4896 68.5424C48.4896 68.5424 46.7394 66.8684 45.1388 67.5374L44.3569 69.0646C43.9107 69.2114 43.5042 69.4588 43.1689 69.7877C42.8336 70.1167 42.5785 70.5183 42.4232 70.9616C41.8276 72.5255 39.8826 78.3011 39.5184 80.8841C39.1543 83.467 56.6421 95.8285 56.6421 95.8285V84.5849Z" fill="#999999"/>
<mask id="mask11_53_1117" style="mask-type:luminance" maskUnits="userSpaceOnUse" x="39" y="67" width="18" height="29">
<path d="M56.6421 84.5849C56.6421 84.5849 50.7592 81.3753 49.5708 80.9377L48.3795 80.503C48.3795 80.503 47.8573 79.2383 47.335 79.0915C47.335 79.0915 48.2299 75.1395 48.2299 73.9539V69.6715L48.4896 68.5424C48.4896 68.5424 46.7394 66.8684 45.1388 67.5374L44.3569 69.0646C43.9107 69.2114 43.5042 69.4588 43.1689 69.7877C42.8336 70.1167 42.5785 70.5183 42.4232 70.9616C41.8276 72.5255 39.8826 78.3011 39.5184 80.8841C39.1543 83.467 56.6421 95.8285 56.6421 95.8285V84.5849Z" fill="white"/>
</mask>
<g mask="url(#mask11_53_1117)">
<path opacity="0.2" d="M56.5207 84.52L56.6421 84.5849V95.8398C56.6421 95.8398 49.0655 90.482 43.9843 86.0839C52.2864 91.295 51.9872 89.6972 51.9872 89.6972C52.7324 85.9371 54.3302 84.5849 54.3302 84.5849C54.3302 84.5849 55.1657 84.5567 56.5207 84.52Z" fill="black" fill-opacity="0.7"/>
</g>
<path d="M56.6421 84.5849C56.6421 84.5849 50.7592 81.3753 49.5708 80.9377L48.3795 80.503C48.3795 80.503 47.8573 79.2383 47.335 79.0915C47.335 79.0915 48.2299 75.1395 48.2299 73.9539V69.6715L48.4896 68.5424C48.4896 68.5424 46.7394 66.8684 45.1388 67.5374L44.3569 69.0646C43.9107 69.2114 43.5042 69.4588 43.1689 69.7877C42.8336 70.1167 42.5785 70.5183 42.4232 70.9616C41.8276 72.5255 39.8826 78.3011 39.5184 80.8841C39.1543 83.467 56.6421 95.8285 56.6421 95.8285V84.5849Z" stroke="#263238" stroke-linecap="round" stroke-linejoin="round"/>
<path d="M45.5085 69.0533C45.5085 69.0533 47.5439 69.0195 48.2298 69.6716" stroke="#263238" stroke-linecap="round" stroke-linejoin="round"/>
<path d="M47.335 79.0888C47.335 79.0888 45.1727 80.7628 44.7266 80.0938C44.2806 79.4247 46.0308 79.0888 46.0308 79.0888" stroke="#263238" stroke-linecap="round" stroke-linejoin="round"/>
<path d="M48.3795 80.5031C48.3795 80.5031 48.5235 82.3831 49.4748 83.3259" stroke="#263238" stroke-linecap="round" stroke-linejoin="round"/>
<path d="M51.1205 89.6972C51.1205 89.6972 53.4691 93.5617 55.0556 94.6994" stroke="#263238" stroke-linecap="round" stroke-linejoin="round"/>
<path d="M62.5589 81.3216C62.7361 82.0271 62.7475 82.7641 62.5922 83.4747C62.437 84.1853 62.1193 84.8503 61.6641 85.4177C61.6641 85.4177 65.4919 87.3514 69.2012 85.4177C69.2012 85.4177 68.072 82.9589 68.8116 81.6943C68.8258 81.6943 66.5053 80.28 62.5589 81.3216Z" fill="white" stroke="#263238" stroke-linecap="round" stroke-linejoin="round"/>
<path d="M71.6119 75.4302C71.6119 75.4302 70.5251 70.349 66.0564 69.9595C61.5878 69.5699 60.0267 73.3469 59.4396 76.4521L65.8334 77.0873L71.6119 75.4302Z" fill="#008158" stroke="#263238" stroke-linecap="round" stroke-linejoin="round"/>
<path d="M71.1998 75.0548C71.8688 74.7923 72.1426 75.8283 72.1426 75.8283C72.1426 75.8283 72.8992 76.3251 72.8992 78.112C72.8992 79.7267 71.7531 80.2913 71.7531 80.2913C71.7531 80.2913 71.2506 81.3555 70.6239 80.6611C69.9972 79.9667 70.3699 75.3766 71.1998 75.0548Z" fill="#008158" stroke="#263238" stroke-linecap="round" stroke-linejoin="round"/>
<path d="M72.1427 75.8283C72.1427 75.8283 72.5012 78.0104 71.8914 79.4218Z" fill="#008158"/>
<path d="M72.1427 75.8283C72.1427 75.8283 72.5012 78.0104 71.8914 79.4218" stroke="#263238" stroke-linecap="round" stroke-linejoin="round"/>
<path d="M59.8828 75.0548C59.2138 74.7923 58.9399 75.8283 58.9399 75.8283C58.9399 75.8283 58.1862 76.3251 58.1862 78.112C58.1862 79.7267 59.3295 80.2913 59.3295 80.2913C59.3295 80.2913 59.8348 81.3555 60.4587 80.6611C61.0825 79.9667 60.7155 75.3766 59.8828 75.0548Z" fill="#008158" stroke="#263238" stroke-linecap="round" stroke-linejoin="round"/>
<path d="M58.9455 75.8283C58.9455 75.8283 58.587 78.0104 59.1968 79.4218Z" fill="#008158"/>
<path d="M58.9455 75.8283C58.9455 75.8283 58.587 78.0104 59.1968 79.4218" stroke="#263238" stroke-linecap="round" stroke-linejoin="round"/>
<path d="M67.6965 71.1875C67.6965 71.1875 66.0818 70.0583 64.8228 70.239C63.5638 70.4197 64.6535 70.7048 64.6535 70.7048C64.6535 70.7048 62.5306 70.8233 62.3359 71.1875C62.1411 71.5517 62.3359 71.5488 62.3359 71.5488C62.3359 71.5488 61.0486 72.1134 60.7522 72.678C60.4558 73.2426 61.0345 73.1184 61.0345 73.1184C61.0345 73.1184 59.863 74.5721 59.7783 75.4642C59.6936 76.3562 60.0606 75.9667 60.0606 75.9667C59.9254 77.3129 60.0209 78.6723 60.3429 79.9865C60.8736 81.8863 61.2632 81.9625 61.2349 82.4706C61.2067 82.9787 61.8785 82.7247 61.8785 82.7247C61.8785 82.7247 62.1778 83.2893 62.6153 83.2893C63.0529 83.2893 63.7247 82.8432 63.7247 82.8432C63.7247 82.8432 64.6535 83.8764 65.3507 83.7353C66.048 83.5941 66.2456 82.7868 66.2456 82.7868C66.2456 82.7868 66.8581 83.9159 67.3042 83.7494C67.7502 83.5828 67.6965 82.815 67.6965 82.815C67.6965 82.815 68.199 83.4304 68.6168 83.3796C68.7306 83.3661 68.8349 83.3093 68.9079 83.221C68.981 83.1327 69.0172 83.0197 69.0092 82.9053C69.0092 82.9053 69.4834 83.1283 69.6218 83.0154C69.7601 82.9025 69.5399 82.6259 69.8448 82.1516C70.1496 81.6774 71.0755 80.1135 71.2986 78.9674C71.2986 78.9674 71.4058 79.4134 71.6034 78.6061C71.801 77.7987 71.3804 75.8199 71.3804 75.8199C71.3804 75.8199 71.482 76.232 71.6627 76.1191C71.8434 76.0062 71.2506 74.3604 70.0226 73.6632C70.0226 73.6632 70.4686 73.7761 70.4969 73.4966C70.5251 73.2172 69.7431 70.9927 67.6965 71.1875Z" fill="#263238"/>
<path d="M59.7642 85.7141C59.7642 85.7141 61.6019 84.7458 65.729 84.5849C69.8561 84.424 71.8914 85.7141 71.8914 85.7141C70.1525 86.795 68.1753 87.4337 66.1327 87.5744C62.9315 87.724 59.7642 85.7141 59.7642 85.7141Z" fill="#999999" stroke="#263238" stroke-linecap="round" stroke-linejoin="round"/>
<path d="M53.9688 82.4932L60.1171 85.2737C60.1171 85.2737 61.4579 85.9202 65.1983 86.0839C68.9386 86.2476 72.2555 84.5849 72.2555 84.5849L77.619 82.8573C77.619 82.8573 79.2789 91.0748 76.8342 100.009L77.763 112.814C77.763 112.814 64.6196 115.27 52.5743 112.814L53.8361 100.455C53.8361 100.455 52.3682 88.8108 53.9688 82.4932Z" fill="#008158"/>
<mask id="mask12_53_1117" style="mask-type:luminance" maskUnits="userSpaceOnUse" x="52" y="82" width="27" height="32">
<path d="M53.9688 82.4932L60.1171 85.2737C60.1171 85.2737 61.4579 85.9202 65.1983 86.0839C68.9386 86.2476 72.2555 84.5849 72.2555 84.5849L77.619 82.8573C77.619 82.8573 79.2789 91.0748 76.8342 100.009L77.763 112.814C77.763 112.814 64.6196 115.27 52.5743 112.814L53.8361 100.455C53.8361 100.455 52.3682 88.8108 53.9688 82.4932Z" fill="white"/>
</mask>
<g mask="url(#mask12_53_1117)">
<path opacity="0.6" d="M77.9606 93.8694C75.0248 94.6033 70.5364 95.4954 66.0762 95.4954C61.3338 95.4954 56.3598 94.6316 53.3083 93.988C53.2236 92.1418 53.1869 90.0952 53.2659 88.1079C56.0352 89.7226 60.58 91.7014 65.9831 91.4953C70.2655 91.3092 74.4383 90.0836 78.1413 87.9244C78.2166 89.9079 78.1563 91.8942 77.9606 93.8694Z" fill="white"/>
<path opacity="0.6" d="M77.6133 110.756C73.2124 111.645 64.5546 112.715 52.7719 110.973L53.2179 106.595C61.1954 108.076 69.3989 107.815 77.2661 105.83L77.6133 110.756Z" fill="white"/>
</g>
<path d="M60.1171 85.2737C60.1171 85.2737 64.549 87.7579 67.1743 87.5829C69.7996 87.4078 71.259 86.0839 71.259 86.0839" stroke="#263238" stroke-linecap="round" stroke-linejoin="round"/>
<path d="M76.775 95.3373C76.775 95.3373 77.0911 98.372 76.8371 100.009" stroke="#263238" stroke-linecap="round" stroke-linejoin="round"/>
<path d="M53.7938 100.21C53.7938 100.21 53.9773 95.5039 54.3302 94.0557" stroke="#263238" stroke-linecap="round" stroke-linejoin="round"/>
<path d="M56.0634 101.364C56.0634 101.364 64.9838 107.292 72.2471 101.757" stroke="#263238" stroke-linecap="round" stroke-linejoin="round"/>
<path d="M73.2605 107.23C73.2605 107.23 66.9316 108.359 61.6641 105.164" stroke="#263238" stroke-linecap="round" stroke-linejoin="round"/>
<path d="M52.5771 112.814L53.8389 100.455C53.8389 100.455 52.3682 88.8108 53.9688 82.4932L60.117 85.2737C60.117 85.2737 61.4579 85.9202 65.1983 86.0839C68.9386 86.2476 72.2555 84.5849 72.2555 84.5849L77.619 82.8573C77.619 82.8573 79.2789 91.0748 76.8342 100.009L77.763 112.814" stroke="#263238" stroke-linecap="round" stroke-linejoin="round"/>
<g opacity="0.4">
<path d="M68.0664 73.8015C67.7141 73.2564 67.2367 72.8033 66.6741 72.4797C66.1114 72.1562 65.4797 71.9716 64.8314 71.9412" stroke="white" stroke-linecap="round" stroke-linejoin="round"/>
<path d="M67.434 74.287C67.434 74.287 65.3507 74.3237 64.6111 75.402" stroke="white" stroke-linecap="round" stroke-linejoin="round"/>
<path d="M67.8066 74.8431C67.8066 74.8431 66.9597 76.2969 67.1743 77.3583" stroke="white" stroke-linecap="round" stroke-linejoin="round"/>
<path d="M68.7015 74.8431C69.2721 75.135 69.7581 75.5685 70.113 76.1022" stroke="white" stroke-linecap="round" stroke-linejoin="round"/>
<path d="M68.8483 73.8015C68.8483 73.8015 68.8483 72.6977 69.7431 72.8728" stroke="white" stroke-linecap="round" stroke-linejoin="round"/>
</g>
</svg>
