<svg width="215" height="203" viewBox="0 0 215 203" fill="none" xmlns="http://www.w3.org/2000/svg">
<path d="M184.279 47.9222C184.107 47.6404 183.929 47.3534 183.757 47.0769L78.2506 4.9118C74.5497 6.23483 70.9544 7.83626 67.4954 9.70234L184.279 47.9222Z" fill="#E6F2EE"/>
<path d="M185.74 50.3957L185.448 49.8739L40.7039 32.653C38.2877 35.6849 36.0438 38.8421 33.9199 42.0984L185.74 50.3957Z" fill="#E6F2EE"/>
<path d="M188.042 54.7584L32.2709 177.423C32.871 177.695 33.4763 177.945 34.0921 178.196C38.4715 180.023 43.1705 180.961 47.9158 180.956L188.229 55.1341L188.042 54.7584Z" fill="#E6F2EE"/>
<path d="M180.944 42.8864C180.313 42.0045 179.655 41.133 178.988 40.2771L130.55 4.0559C127.377 2.81271 124.104 1.84375 120.765 1.15966C120.765 1.15966 118.986 0.773495 115.896 0.449951L180.944 42.8864Z" fill="#E6F2EE"/>
<path d="M186.7 52.1387C186.633 52.0082 186.559 51.8778 186.486 51.7473L17.2783 76.1853C15.6814 80.3601 14.1837 84.5713 12.7695 88.7096L186.7 52.1387Z" fill="#E6F2EE"/>
<path d="M190.212 59.5281C190.103 59.2724 189.998 59.0062 189.889 58.7557L152.003 153.564C155.059 152.391 158.012 150.967 160.833 149.306L190.212 59.5281Z" fill="#E6F2EE"/>
<path d="M192.3 65.044C192.081 64.3916 191.851 63.7446 191.611 63.0975L183.595 130.457C185.712 127.819 187.578 124.989 189.169 122.003L192.3 65.044Z" fill="#E6F2EE"/>
<path d="M187.483 53.6312L187.295 53.2764L2.87015 132.388C3.03968 137.035 3.7757 141.644 5.0619 146.113L187.483 53.6312Z" fill="#E6F2EE"/>
<path d="M189.075 56.9241C189.002 56.7623 188.923 56.6005 188.85 56.444L110.855 160.766C115.03 160.14 118.829 159.649 122.336 159.2L189.075 56.9241Z" fill="#E6F2EE"/>
<path d="M31.0498 146.238H12.2634V202.472H31.0498V146.238Z" fill="#263238"/>
<path opacity="0.17" d="M31.0498 146.238H12.2634V202.472H31.0498V146.238Z" fill="white"/>
<path opacity="0.2" d="M31.0498 186.028C24.5226 187.779 18.2189 190.276 12.2634 193.47V202.472H31.0498V186.028Z" fill="black"/>
<path d="M59.2294 141.374H40.443V202.472H59.2294V141.374Z" fill="#75AE2C"/>
<path opacity="0.2" d="M58.3161 182.506C52.3278 182.497 46.3492 182.989 40.443 183.978V202.472H59.2294V182.506H58.3161Z" fill="black"/>
<path d="M87.409 127.154H68.6226V202.472H87.409V127.154Z" fill="#263238"/>
<path opacity="0.17" d="M87.409 127.154H68.6226V202.472H87.409V127.154Z" fill="white"/>
<path opacity="0.2" d="M87.409 184.207C81.6948 183.623 75.5474 183.049 68.6226 182.741V202.472H87.409V184.207Z" fill="black"/>
<path d="M115.589 134.637H96.8022V202.472H115.589V134.637Z" fill="#75AE2C"/>
<path opacity="0.2" d="M115.589 185.955C109.316 186.115 103.039 185.85 96.8022 185.162V202.472H115.589V185.955Z" fill="black"/>
<path d="M143.768 94.9664H124.982V202.472H143.768V94.9664Z" fill="#263238"/>
<path opacity="0.17" d="M143.768 94.9664H124.982V202.472H143.768V94.9664Z" fill="white"/>
<path opacity="0.2" d="M143.768 180.252C137.682 182.481 131.389 184.1 124.982 185.084V202.472H143.768V180.252Z" fill="black"/>
<path d="M202.215 75.1364H183.428V202.472H202.215V75.1364Z" fill="#263238"/>
<path opacity="0.17" d="M202.215 75.1364H183.428V202.472H202.215V75.1364Z" fill="white"/>
<path opacity="0.2" d="M202.215 160.093C196.128 162.32 189.835 163.939 183.428 164.925V202.472H202.215V160.093Z" fill="black"/>
<path d="M171.948 79.8069H153.161V202.472H171.948V79.8069Z" fill="#75AE2C"/>
<path opacity="0.2" d="M153.161 176.682V202.472H171.948V169.032C165.941 171.568 159.601 174.167 153.161 176.682Z" fill="black"/>
<path d="M214.739 202.733H0.260922C0.191721 202.733 0.125355 202.705 0.0764222 202.656C0.0274898 202.607 0 202.541 0 202.472C0 202.403 0.0274898 202.336 0.0764222 202.287C0.125355 202.238 0.191721 202.211 0.260922 202.211H214.739C214.808 202.211 214.875 202.238 214.924 202.287C214.973 202.336 215 202.403 215 202.472C215 202.541 214.973 202.607 214.924 202.656C214.875 202.705 214.808 202.733 214.739 202.733Z" fill="#263238"/>
<path d="M57.2725 60.9266L65.3141 72.929L81.1468 71.4417V74.6563C81.1468 74.6563 66.1751 79.7339 64.3174 80.2244C62.4596 80.7149 53.3064 74.411 53.3064 74.411C53.3064 74.411 52.2001 65.3779 57.2725 60.9266Z" fill="white"/>
<path d="M64.1086 80.5114C61.776 80.5114 54.0683 75.2512 53.1499 74.6249C53.1191 74.6042 53.0929 74.5772 53.0731 74.5458C53.0534 74.5143 53.0404 74.4791 53.0351 74.4423C52.9933 74.0666 51.9914 65.2213 57.0846 60.7282C57.1122 60.7035 57.1448 60.685 57.1802 60.6741C57.2156 60.6631 57.253 60.6601 57.2897 60.665C57.3265 60.67 57.3617 60.6829 57.3929 60.7028C57.4242 60.7227 57.4508 60.7492 57.4708 60.7804L65.4289 72.6524L81.1469 71.1808C81.1836 71.1777 81.2206 71.1821 81.2556 71.1937C81.2906 71.2054 81.3228 71.2241 81.3504 71.2486C81.3767 71.2734 81.3976 71.3034 81.412 71.3366C81.4264 71.3698 81.4338 71.4055 81.4339 71.4417V74.6563C81.4338 74.7112 81.4167 74.7648 81.3849 74.8097C81.3531 74.8545 81.3083 74.8884 81.2564 74.9067C80.6459 75.1155 66.2534 79.9895 64.4113 80.48C64.3122 80.5037 64.2105 80.5142 64.1086 80.5114ZM53.5569 74.2492C57.2098 76.7541 62.9919 80.2922 64.2547 79.9582C65.9716 79.499 79.1951 75.0268 80.8911 74.458V71.7131L65.3402 73.169C65.2926 73.1747 65.2445 73.167 65.2011 73.1467C65.1577 73.1264 65.1209 73.0944 65.0949 73.0542L57.2203 61.3075C52.8577 65.4248 53.4578 73.2264 53.5569 74.2649V74.2492Z" fill="#263238"/>
<mask id="mask0_53_970" style="mask-type:luminance" maskUnits="userSpaceOnUse" x="53" y="60" width="29" height="21">
<mask id="mask1_53_970" style="mask-type:luminance" maskUnits="userSpaceOnUse" x="53" y="60" width="29" height="21">
<path d="M57.2725 60.9266L65.3141 72.929L81.1468 71.4417V74.6563C81.1468 74.6563 66.1751 79.7339 64.3174 80.2244C62.4596 80.7149 53.3064 74.411 53.3064 74.411C53.3064 74.411 52.2001 65.3779 57.2725 60.9266Z" fill="white"/>
</mask>
<g mask="url(#mask1_53_970)">
<path d="M64.1086 80.5114C61.776 80.5114 54.0683 75.2512 53.1499 74.6249C53.1191 74.6042 53.0929 74.5772 53.0731 74.5458C53.0534 74.5143 53.0404 74.4791 53.0351 74.4423C52.9933 74.0666 51.9914 65.2213 57.0846 60.7282C57.1122 60.7035 57.1448 60.685 57.1802 60.6741C57.2156 60.6631 57.253 60.6601 57.2897 60.665C57.3265 60.67 57.3617 60.6829 57.3929 60.7028C57.4242 60.7227 57.4508 60.7492 57.4708 60.7804L65.4289 72.6524L81.1469 71.1808C81.1836 71.1777 81.2206 71.1821 81.2556 71.1937C81.2906 71.2054 81.3228 71.2241 81.3504 71.2486C81.3767 71.2734 81.3976 71.3034 81.412 71.3366C81.4264 71.3698 81.4338 71.4055 81.4339 71.4417V74.6563C81.4338 74.7112 81.4167 74.7648 81.3849 74.8097C81.3531 74.8545 81.3083 74.8884 81.2564 74.9067C80.6459 75.1155 66.2534 79.9895 64.4113 80.48C64.3122 80.5037 64.2105 80.5142 64.1086 80.5114ZM53.5569 74.2492C57.2098 76.7541 62.9919 80.2922 64.2547 79.9582C65.9716 79.499 79.1951 75.0268 80.8911 74.458V71.7131L65.3402 73.169C65.2926 73.1747 65.2445 73.167 65.2011 73.1467C65.1577 73.1264 65.1209 73.0944 65.0949 73.0542L57.2203 61.3075C52.8577 65.4248 53.4578 73.2264 53.5569 74.2649V74.2492Z" fill="white"/>
</g>
</mask>
<g mask="url(#mask0_53_970)">
<path d="M71.6806 73.4612C72.3642 72.3706 63.6494 76.5923 63.2424 76.4566C62.8353 76.3209 63.9208 74.5467 63.2424 73.7326C62.564 72.9185 61.4733 75.6373 60.7897 73.7326C60.1991 72.2599 59.4705 70.8463 58.6136 69.5109L55.039 63.7706C52.5759 68.3993 53.3117 74.3901 53.3117 74.3901C53.3117 74.3901 62.47 80.6992 64.3226 80.2035C65.622 79.859 73.3453 77.2707 77.8905 75.7469C74.4933 76.1018 68.7896 76.6653 68.0329 76.5714C66.9162 76.4566 71.0022 74.5467 71.6806 73.4612Z" fill="#92E3A9"/>
<path opacity="0.5" d="M71.6806 73.4612C72.3642 72.3706 63.6494 76.5923 63.2424 76.4566C62.8353 76.3209 63.9208 74.5467 63.2424 73.7326C62.564 72.9185 61.4733 75.6373 60.7897 73.7326C60.1991 72.2599 59.4705 70.8463 58.6136 69.5109L55.039 63.7706C52.5759 68.3993 53.3117 74.3901 53.3117 74.3901C53.3117 74.3901 62.47 80.6992 64.3226 80.2035C65.622 79.859 73.3453 77.2707 77.8905 75.7469C74.4933 76.1018 68.7896 76.6653 68.0329 76.5714C66.9162 76.4566 71.0022 74.5467 71.6806 73.4612Z" fill="white"/>
</g>
<path d="M79.2943 75.1677C79.2308 75.1681 79.1694 75.1447 79.1221 75.1023C79.0749 75.0598 79.0451 75.0013 79.0386 74.9381L78.6629 71.7183C78.6553 71.6491 78.6755 71.5797 78.719 71.5254C78.7626 71.4711 78.8259 71.4363 78.8951 71.4287C78.9643 71.4211 79.0337 71.4413 79.088 71.4848C79.1423 71.5284 79.1771 71.5917 79.1847 71.6609L79.5552 74.8755C79.5627 74.9445 79.5428 75.0137 79.4999 75.0683C79.457 75.1229 79.3945 75.1586 79.3256 75.1677H79.2943Z" fill="#263238"/>
<path d="M81.1469 71.4417L82.5089 69.584L86.9602 69.3387C86.9602 69.3387 87.2107 73.049 86.5897 73.67C85.9687 74.291 81.1469 74.6563 81.1469 74.6563V71.4417Z" fill="white"/>
<path d="M81.1468 74.9172C81.1142 74.9183 81.0818 74.9128 81.0513 74.9012C81.0208 74.8895 80.993 74.8719 80.9694 74.8494C80.9431 74.8245 80.9221 74.7946 80.9078 74.7614C80.8934 74.7282 80.886 74.6925 80.8859 74.6563V71.4417C80.8847 71.3851 80.9032 71.3298 80.9381 71.2852L82.2949 69.4326C82.3181 69.4011 82.3478 69.375 82.3821 69.3561C82.4163 69.3372 82.4542 69.3259 82.4932 69.323L86.9498 69.0778C86.9838 69.0757 87.0179 69.0804 87.05 69.0916C87.0822 69.1029 87.1118 69.1204 87.1371 69.1433C87.1623 69.1661 87.1828 69.1938 87.1972 69.2247C87.2117 69.2555 87.2198 69.289 87.2211 69.323C87.2629 69.9597 87.4455 73.1847 86.7723 73.8526C86.0991 74.5206 81.987 74.8546 81.1677 74.8963L81.1468 74.9172ZM81.4078 71.5252V74.3745C83.3595 74.2127 86.0417 73.8526 86.407 73.4821C86.7723 73.1116 86.7984 71.0973 86.7149 69.6153L82.6445 69.8397L81.4078 71.5252Z" fill="#263238"/>
<path d="M84.9876 68.9682C84.9876 68.9682 84.3666 73.7901 84.9876 73.7901C85.6086 73.7901 87.7117 73.9153 87.7117 72.8038C87.7117 71.6923 88.0822 68.5977 87.3359 68.4725C86.5897 68.3473 84.9876 68.9682 84.9876 68.9682Z" fill="white"/>
<path d="M85.4678 74.0562H84.9877C84.9317 74.0549 84.8767 74.0417 84.8263 74.0174C84.7758 73.9931 84.7312 73.9583 84.6954 73.9153C84.2153 73.3934 84.5598 70.2624 84.7267 68.9317C84.7342 68.8854 84.7535 68.8419 84.7828 68.8053C84.812 68.7687 84.8502 68.7403 84.8937 68.7229C85.0659 68.6551 86.5897 68.0811 87.3829 68.2011C88.1761 68.3211 88.1135 69.7666 88.0091 71.854C88.0091 72.2297 87.9726 72.5637 87.9726 72.8038C87.9747 72.9362 87.9493 73.0676 87.8981 73.1897C87.8469 73.3118 87.771 73.4221 87.6752 73.5135C87.1794 74.004 86.167 74.0562 85.4678 74.0562ZM85.0868 73.5343H85.186C85.7078 73.5343 86.9081 73.5343 87.3308 73.1429C87.3763 73.0991 87.4123 73.0464 87.4366 72.988C87.4608 72.9297 87.4728 72.8669 87.4716 72.8038C87.4716 72.5585 87.4716 72.2141 87.5082 71.8279C87.6125 69.8136 87.5499 68.7699 87.3151 68.7281C86.5989 68.741 85.8912 68.886 85.2277 69.1561C84.9981 71.0138 84.8781 73.1169 85.0659 73.5343H85.0868Z" fill="#263238"/>
<path d="M81.6687 70.5756C81.6687 70.5756 82.655 68.5978 83.4013 68.4882C84.1475 68.3786 85.0085 68.6134 85.0085 68.9839C85.0085 69.3544 85.7496 71.828 85.0085 72.0785C84.2675 72.329 83.897 71.4575 83.897 71.4575L83.6465 70.9617C83.5891 71.2354 83.4536 71.4866 83.2563 71.6849C83.059 71.8831 82.8084 72.0198 82.535 72.0785" fill="white"/>
<path d="M84.7267 72.3654C84.4911 72.3455 84.2655 72.2609 84.0749 72.1209C83.8843 71.9809 83.736 71.791 83.6465 71.5722C83.4075 71.9448 83.0334 72.2104 82.6028 72.3132C82.5685 72.3214 82.533 72.3228 82.4982 72.3173C82.4634 72.3118 82.43 72.2994 82.4 72.281C82.3699 72.2626 82.3438 72.2385 82.3231 72.21C82.3024 72.1814 82.2875 72.1491 82.2793 72.1149C82.271 72.0806 82.2697 72.0451 82.2752 72.0103C82.2807 71.9755 82.293 71.9421 82.3114 71.912C82.3298 71.882 82.354 71.8559 82.3825 71.8352C82.411 71.8144 82.4433 71.7996 82.4776 71.7913C82.7005 71.7452 82.9055 71.6362 83.0683 71.4771C83.2311 71.318 83.3448 71.1155 83.396 70.8938C83.4044 70.8392 83.43 70.7887 83.4689 70.7495C83.5079 70.7104 83.5582 70.6846 83.6128 70.6759C83.6673 70.6672 83.7232 70.676 83.7724 70.7011C83.8216 70.7262 83.8616 70.7662 83.8866 70.8155L84.1318 71.3112C84.1683 71.3895 84.4345 71.9583 84.9302 71.7965C85.092 71.7444 85.2068 71.3112 84.852 69.5578C84.8017 69.3592 84.7686 69.1567 84.7528 68.9525C84.564 68.824 84.3504 68.7364 84.1258 68.695C83.9012 68.6537 83.6704 68.6596 83.4482 68.7124C83.0255 68.7855 82.2949 69.9023 81.8827 70.6746C81.8676 70.7055 81.8467 70.7331 81.8209 70.7558C81.7952 70.7786 81.7653 70.796 81.7328 70.8072C81.7003 70.8183 81.6659 70.823 81.6316 70.8208C81.5974 70.8187 81.5639 70.8097 81.533 70.7946C81.4726 70.7623 81.4269 70.708 81.4055 70.6428C81.3841 70.5777 81.3886 70.5068 81.4182 70.445C81.5957 70.0901 82.5089 68.3576 83.3386 68.201C83.9215 68.0808 84.5282 68.1932 85.0294 68.5141C85.097 68.566 85.1522 68.6322 85.191 68.708C85.2298 68.7839 85.2512 68.8674 85.2538 68.9525C85.2538 69.0099 85.3007 69.2447 85.3425 69.4743C85.6139 70.8311 85.8017 72.0836 85.0764 72.3132C84.9635 72.3497 84.8453 72.3673 84.7267 72.3654Z" fill="#263238"/>
<path d="M34.9323 88.9027L35.3237 110.951L22.4081 134.825L24.7564 136.391C24.7564 136.391 43.1514 116.43 43.8037 114.604C44.456 112.777 48.2394 96.339 48.2394 96.339C48.2394 96.339 49.544 90.9901 47.3261 88.12C45.1083 85.2498 37.672 83.032 34.9323 88.9027Z" fill="#263238"/>
<path d="M24.7564 136.651C24.7049 136.65 24.6545 136.636 24.6102 136.61L22.2619 135.044C22.209 135.006 22.1715 134.951 22.1562 134.887C22.1409 134.824 22.1488 134.758 22.1784 134.7L35.0628 110.888L34.6714 88.9078C34.6635 88.87 34.6635 88.8309 34.6714 88.793C35.1122 87.7517 35.8266 86.8492 36.739 86.1813C37.6513 85.5133 38.7275 85.1048 39.8533 84.9992C42.9479 84.6548 46.1781 86.236 47.5088 87.9581C49.7788 90.8961 48.5264 96.1771 48.469 96.4015C48.3176 97.0695 44.6752 112.871 44.0281 114.692C43.381 116.513 25.68 135.749 24.9286 136.568C24.8838 136.617 24.8223 136.646 24.7564 136.651ZM22.7472 134.741L24.7146 136.051C29.9331 130.389 43.0418 115.96 43.5584 114.515C44.1951 112.725 47.9471 96.4433 47.9837 96.2815C47.9837 96.2241 49.2309 91.0161 47.1174 88.2816C45.9015 86.7161 42.807 85.1975 39.9316 85.5159C38.9053 85.6116 37.9238 85.982 37.09 86.588C36.2563 87.1941 35.6011 88.0134 35.1932 88.96L35.5846 110.945C35.5848 110.991 35.5741 111.035 35.5533 111.076L22.7472 134.741Z" fill="#263238"/>
<mask id="mask2_53_970" style="mask-type:luminance" maskUnits="userSpaceOnUse" x="22" y="85" width="27" height="52">
<mask id="mask3_53_970" style="mask-type:luminance" maskUnits="userSpaceOnUse" x="22" y="85" width="27" height="52">
<path d="M34.9323 88.9027L35.3237 110.951L22.4081 134.825L24.7564 136.391C24.7564 136.391 43.1514 116.43 43.8037 114.604C44.456 112.777 48.2394 96.339 48.2394 96.339C48.2394 96.339 49.544 90.9901 47.3261 88.12C45.1083 85.2498 37.672 83.032 34.9323 88.9027Z" fill="white"/>
</mask>
<g mask="url(#mask3_53_970)">
<path d="M24.7564 136.652C24.7049 136.651 24.6545 136.636 24.6102 136.61L22.2619 135.044C22.209 135.006 22.1715 134.951 22.1562 134.888C22.1409 134.824 22.1488 134.758 22.1784 134.7L35.0628 110.888L34.6714 88.908C34.6635 88.8701 34.6635 88.831 34.6714 88.7932C35.1122 87.7519 35.8266 86.8493 36.739 86.1814C37.6513 85.5134 38.7275 85.105 39.8533 84.9993C42.9479 84.6549 46.1781 86.2361 47.5088 87.9582C49.7788 90.8962 48.5264 96.1773 48.469 96.4017C48.3176 97.0696 44.6752 112.871 44.0281 114.692C43.381 116.514 25.68 135.749 24.9286 136.568C24.8838 136.617 24.8223 136.647 24.7564 136.652ZM22.7472 134.742L24.7146 136.051C29.9331 130.389 43.0418 115.96 43.5584 114.515C44.1951 112.725 47.9471 96.4434 47.9837 96.2816C47.9837 96.2242 49.2309 91.0162 47.1174 88.2817C45.9015 86.7162 42.807 85.1977 39.9316 85.516C38.9053 85.6118 37.9238 85.9821 37.09 86.5882C36.2563 87.1942 35.6011 88.0135 35.1932 88.9601L35.5846 110.945C35.5848 110.991 35.5741 111.036 35.5533 111.076L22.7472 134.742Z" fill="white"/>
</g>
</mask>
<g mask="url(#mask2_53_970)">
<path opacity="0.2" d="M43.1201 112.37C42.3373 112.96 32.5527 126.486 27.8874 132.973C33.1633 127.185 43.3184 115.95 43.8037 114.604C44.456 112.777 48.2394 96.339 48.2394 96.339C48.2394 96.339 48.3124 96.0312 48.3959 95.525C47.4566 91.6685 42.9896 87.5929 42.0868 88.8767L40.7979 98.5569C40.7979 98.5569 40.7979 106.432 41.0536 107.209C41.3093 107.987 43.7672 106.306 43.1409 107.209C42.5147 108.112 38.3661 111.853 39.3993 111.853C40.4326 111.853 44.1533 111.598 43.1201 112.37Z" fill="white"/>
</g>
<path d="M24.7563 136.391C24.7563 136.391 24.8868 140.304 25.1477 140.957C25.4086 141.609 26.4523 144.61 26.8437 145.262C27.2351 145.914 26.7132 146.306 26.0609 146.306C25.4086 146.306 23.8431 146.306 23.1908 145.653C22.5385 145.001 21.4948 142.783 20.5816 141.739C19.6683 140.696 17.1896 139.391 17.9723 138.087C18.7551 136.782 22.408 134.825 22.408 134.825L24.7563 136.391Z" fill="white"/>
<path d="M26.0609 146.567C25.3617 146.567 23.7335 146.567 23.0029 145.836C22.5406 145.274 22.1351 144.667 21.7922 144.025C21.3794 143.281 20.9083 142.571 20.3833 141.901C20.0776 141.579 19.7479 141.281 19.397 141.009C18.3533 140.148 17.0643 139.078 17.748 137.94C18.5568 136.589 22.1314 134.663 22.2828 134.585C22.3229 134.561 22.3689 134.548 22.4159 134.548C22.4628 134.548 22.5088 134.561 22.5489 134.585L24.8972 136.151C24.9322 136.173 24.9613 136.204 24.9822 136.241C25.003 136.277 25.0151 136.317 25.0172 136.359C25.0694 137.925 25.2103 140.393 25.3878 140.837C25.4608 141.019 25.5913 141.359 25.753 141.813C26.1359 142.931 26.5748 144.03 27.0681 145.105C27.1651 145.239 27.2233 145.397 27.2362 145.562C27.2491 145.727 27.2162 145.892 27.1412 146.039C27.0237 146.215 26.8619 146.356 26.6721 146.449C26.4824 146.541 26.2715 146.582 26.0609 146.567ZM22.408 135.128C21.7453 135.498 18.8647 137.132 18.2333 138.222C17.8106 138.916 18.6038 139.652 19.7675 140.617C20.1392 140.907 20.4881 141.224 20.8112 141.567C21.3612 142.259 21.8518 142.995 22.2776 143.769C22.6044 144.369 22.9833 144.938 23.41 145.471C23.984 146.045 25.4973 146.045 26.0975 146.045C26.2133 146.056 26.3303 146.041 26.4391 145.999C26.5478 145.957 26.6453 145.891 26.7237 145.805C26.7462 145.736 26.7518 145.664 26.74 145.593C26.7282 145.522 26.6993 145.455 26.6558 145.398C26.1433 144.296 25.6904 143.167 25.299 142.016C25.1425 141.583 25.012 141.233 24.939 141.056C24.6885 140.424 24.5632 137.304 24.5371 136.531L22.408 135.128Z" fill="#263238"/>
<path d="M20.9938 140.628C20.1364 139.585 19.3368 138.496 18.5986 137.366C18.3583 137.577 18.1477 137.819 17.9723 138.087C17.1896 139.391 19.6683 140.696 20.5816 141.739C21.4948 142.783 22.5385 145.001 23.1908 145.653C23.8431 146.306 25.4086 146.306 26.0609 146.306C26.7132 146.306 27.2351 145.914 26.8437 145.262C23.1438 145.126 22.5333 142.46 20.9938 140.628Z" fill="#263238"/>
<path d="M36.1065 79.379C36.1065 79.379 36.023 79.6191 35.8977 80.0313C35.2872 81.9674 33.612 87.6659 34.1495 89.8159C34.8019 92.4251 40.3804 98.1028 43.4123 101.14C46.2563 103.984 55.2843 108.211 55.2843 108.211C55.2843 108.211 51.3704 118.648 50.4572 121.127C49.544 123.605 46.2824 132.346 46.2824 132.346L48.8917 133.912C48.8917 133.912 59.7199 118.909 61.9378 115.908C64.1556 112.908 66.7753 108.524 65.9821 107.167C58.8798 95.0761 50.4572 88.5113 50.4572 88.5113L51.3704 84.9889L36.1065 79.379Z" fill="#263238"/>
<path d="M48.8916 134.173C48.8439 134.174 48.7968 134.161 48.756 134.136L46.1467 132.571C46.0942 132.54 46.0544 132.492 46.0343 132.434C46.0142 132.377 46.0152 132.314 46.0372 132.258C46.0372 132.258 49.2987 123.517 50.2119 121.038C51.0416 118.789 54.3867 109.881 54.9555 108.347C53.5256 107.668 45.8597 103.953 43.2296 101.323C39.2114 97.3044 34.52 92.3729 33.8938 89.8785C33.372 87.7024 34.9375 82.2126 35.6472 79.9635L35.856 79.3059C35.8803 79.2401 35.9289 79.186 35.9916 79.1546C36.0237 79.1404 36.0584 79.133 36.0934 79.133C36.1285 79.133 36.1631 79.1404 36.1952 79.1546L51.4591 84.7644C51.5204 84.7869 51.5709 84.8316 51.6009 84.8895C51.6308 84.9475 51.638 85.0146 51.6209 85.0775L50.7494 88.433C56.9032 93.7369 62.1275 100.032 66.2065 107.058C67.3075 108.931 63.018 114.885 62.1465 116.086C59.9548 119.05 49.21 133.938 49.1004 134.084C49.075 134.114 49.0429 134.138 49.0066 134.153C48.9704 134.169 48.931 134.175 48.8916 134.173ZM46.6008 132.237L48.8186 133.567C50.0971 131.793 59.673 118.533 61.729 115.752C64.2182 112.386 66.4256 108.399 65.7577 107.298C58.7597 95.3892 50.358 88.7826 50.2954 88.7096C50.2544 88.6789 50.2235 88.6367 50.2068 88.5883C50.19 88.5399 50.1882 88.4876 50.2015 88.4382L51.0573 85.1454L36.2682 79.7182C36.2369 79.8226 36.1952 79.953 36.143 80.1096C35.6211 81.8421 33.873 87.645 34.4 89.7533C35.068 92.4251 41.2675 98.6246 43.5949 100.952C46.3764 103.733 55.3051 107.934 55.3938 107.976C55.4538 108.004 55.5012 108.053 55.5264 108.114C55.5515 108.175 55.5527 108.243 55.5295 108.305C55.4878 108.409 51.6052 118.768 50.7025 121.215C49.8675 123.47 47.0965 130.906 46.6008 132.237Z" fill="#263238"/>
<mask id="mask4_53_970" style="mask-type:luminance" maskUnits="userSpaceOnUse" x="34" y="79" width="33" height="55">
<mask id="mask5_53_970" style="mask-type:luminance" maskUnits="userSpaceOnUse" x="34" y="79" width="33" height="55">
<path d="M36.1065 79.379C36.1065 79.379 36.023 79.6191 35.8977 80.0313C35.2872 81.9674 33.612 87.6659 34.1495 89.8159C34.8019 92.4251 40.3804 98.1028 43.4123 101.14C46.2563 103.984 55.2843 108.211 55.2843 108.211C55.2843 108.211 51.3704 118.648 50.4572 121.127C49.544 123.605 46.2824 132.346 46.2824 132.346L48.8917 133.912C48.8917 133.912 59.7199 118.909 61.9378 115.908C64.1556 112.908 66.7753 108.524 65.9821 107.167C58.8798 95.0761 50.4572 88.5113 50.4572 88.5113L51.3704 84.9889L36.1065 79.379Z" fill="white"/>
</mask>
<g mask="url(#mask5_53_970)">
<path d="M48.8916 134.173C48.8439 134.174 48.7968 134.161 48.756 134.136L46.1467 132.571C46.0942 132.54 46.0544 132.492 46.0343 132.434C46.0142 132.377 46.0152 132.314 46.0372 132.257C46.0372 132.257 49.2987 123.517 50.2119 121.038C51.0416 118.789 54.3867 109.881 54.9555 108.347C53.5256 107.668 45.8597 103.953 43.2296 101.322C39.2114 97.3043 34.52 92.3729 33.8938 89.8784C33.372 87.7024 34.9375 82.2125 35.6472 79.9634L35.856 79.3059C35.8803 79.24 35.9289 79.1859 35.9916 79.1545C36.0237 79.1403 36.0584 79.1329 36.0934 79.1329C36.1285 79.1329 36.1631 79.1403 36.1952 79.1545L51.4591 84.7644C51.5204 84.7869 51.5709 84.8315 51.6009 84.8895C51.6308 84.9474 51.638 85.0145 51.6209 85.0775L50.7494 88.4329C56.9032 93.7368 62.1275 100.032 66.2065 107.058C67.3075 108.931 63.018 114.885 62.1465 116.085C59.9548 119.05 49.21 133.938 49.1004 134.084C49.075 134.114 49.0429 134.138 49.0066 134.153C48.9704 134.169 48.931 134.175 48.8916 134.173ZM46.6008 132.237L48.8186 133.567C50.0971 131.793 59.673 118.533 61.729 115.752C64.2182 112.386 66.4256 108.399 65.7577 107.298C58.7597 95.3891 50.358 88.7826 50.2954 88.7095C50.2544 88.6789 50.2235 88.6366 50.2068 88.5883C50.19 88.5399 50.1882 88.4876 50.2015 88.4382L51.0573 85.1453L36.2682 79.7181C36.2369 79.8225 36.1952 79.953 36.143 80.1095C35.6211 81.842 33.873 87.6449 34.4 89.7532C35.068 92.425 41.2675 98.6246 43.5949 100.952C46.3764 103.733 55.3051 107.934 55.3938 107.976C55.4538 108.004 55.5012 108.053 55.5264 108.114C55.5515 108.175 55.5527 108.243 55.5295 108.305C55.4878 108.409 51.6052 118.768 50.7025 121.215C49.8675 123.47 47.0965 130.906 46.6008 132.237Z" fill="white"/>
</g>
</mask>
<g mask="url(#mask4_53_970)">
<path opacity="0.2" d="M50.4572 88.5113L50.6085 87.9112L47.6392 86.5544C47.6392 86.5544 45.0561 85.6516 44.0228 85.7768C42.9896 85.9021 42.4573 88.8766 44.1533 90.5569C45.8493 92.2372 58.3527 97.9149 57.5803 98.0402C56.808 98.1654 48.2863 97.5183 49.7057 98.3011C51.1251 99.0839 61.0663 99.9762 60.5496 100.754C60.033 101.531 58.9841 101.917 60.4192 102.559C61.8542 103.201 65.241 106.734 66.1125 107.95C66.1464 107.682 66.1011 107.41 65.982 107.167C58.8797 95.0761 50.4572 88.5113 50.4572 88.5113Z" fill="white"/>
</g>
<path d="M48.8238 87.4259C48.7817 87.4261 48.7404 87.4153 48.7038 87.3946C46.9452 86.4553 44.529 85.3072 44.0594 85.0724C43.2564 85.2349 42.4636 85.444 41.685 85.6986C41.6205 85.7229 41.5492 85.7212 41.4859 85.6939C41.4226 85.6667 41.3724 85.616 41.3458 85.5525C41.3215 85.488 41.3232 85.4167 41.3504 85.3534C41.3777 85.2901 41.4284 85.2399 41.4919 85.2133C42.326 84.9423 43.1744 84.7175 44.0333 84.5401C44.0874 84.5218 44.1461 84.5218 44.2003 84.5401C44.2316 84.5401 46.9921 85.8708 48.9491 86.9145C49.0003 86.9421 49.0408 86.9861 49.0641 87.0394C49.0875 87.0927 49.0923 87.1523 49.0779 87.2086C49.0635 87.265 49.0307 87.315 48.9847 87.3506C48.9386 87.3861 48.882 87.4053 48.8238 87.405V87.4259Z" fill="white"/>
<path d="M39.4828 84.9262C39.4136 84.9366 39.3431 84.9191 39.2868 84.8775C39.2306 84.8359 39.1931 84.7736 39.1827 84.7044C39.1723 84.6352 39.1899 84.5648 39.2315 84.5085C39.2731 84.4522 39.3353 84.4148 39.4045 84.4044C41.0161 83.954 42.692 83.7776 44.362 83.8825C44.4312 83.8825 44.4976 83.91 44.5465 83.959C44.5955 84.0079 44.623 84.0743 44.623 84.1435C44.623 84.2127 44.5955 84.279 44.5465 84.328C44.4976 84.3769 44.4312 84.4044 44.362 84.4044C42.7525 84.3137 41.1391 84.4901 39.5872 84.9262C39.5529 84.9348 39.517 84.9348 39.4828 84.9262Z" fill="white"/>
<path d="M48.8916 133.912L50.7181 137.956C50.7181 137.956 54.371 139.783 54.371 140.304C54.371 140.826 53.5882 140.957 53.5882 140.957H48.3698C47.7175 140.957 46.0215 139.261 44.456 138.347C42.8904 137.434 42.2381 137.043 42.3686 135.869C42.4991 134.695 46.2824 132.346 46.2824 132.346L48.8916 133.912Z" fill="white"/>
<path d="M48.3698 141.218C47.9314 141.218 47.3261 140.769 46.3085 139.981C45.6782 139.469 45.0159 138.999 44.3255 138.572C42.76 137.653 41.9563 137.194 42.1077 135.837C42.2486 134.575 45.7606 132.372 46.1415 132.127C46.1822 132.102 46.2292 132.088 46.2772 132.088C46.3252 132.088 46.3722 132.102 46.4129 132.127L49.0221 133.693C49.0684 133.719 49.105 133.759 49.1265 133.807L50.9164 137.768C53.3795 139.005 54.6319 139.856 54.6319 140.31C54.6319 140.894 54.0005 141.155 53.63 141.218H48.3698ZM46.2824 132.654C44.8578 133.552 42.7078 135.159 42.6295 135.9C42.5251 136.871 42.9843 137.184 44.5916 138.123C45.3021 138.563 45.9852 139.046 46.6373 139.569C47.3209 140.09 48.0932 140.696 48.375 140.696H53.5935C53.5935 140.696 54.1153 140.581 54.1153 140.304C53.9848 140.028 52.1897 138.979 50.6033 138.191C50.5509 138.163 50.5088 138.119 50.4833 138.066L48.6881 134.11L46.2824 132.654Z" fill="#263238"/>
<path d="M46.0893 137.085C45.1157 136.216 43.9683 135.565 42.7234 135.175C42.5466 135.371 42.4242 135.61 42.3686 135.869C42.2381 137.043 42.8904 137.434 44.456 138.347C46.0215 139.261 47.7175 140.957 48.3698 140.957H53.5882C53.5882 140.957 54.371 140.826 54.371 140.304C54.371 140.304 54.371 140.273 54.371 140.257C52.8402 140.174 51.3165 139.989 49.8101 139.704C46.7051 139.083 47.7853 138.624 46.0893 137.085Z" fill="#263238"/>
<path d="M52.5759 50.2496C50.1141 50.704 47.827 51.8331 45.9693 53.5112C43.2035 56.1882 41.3666 59.9559 41.1997 61.7146C41.0327 63.4732 38.6583 71.9323 37.7659 73.6804C36.8736 75.4286 34.8279 78.4136 36.1743 80.12C36.8527 80.9758 50.3998 85.4741 51.7409 85.4741C53.0821 85.4741 53.4995 84.2217 53.6665 83.4703C53.8335 82.7188 55.5034 75.8513 56.8446 73.3413C58.1857 70.8312 61.1967 69.1665 61.5412 63.301C61.7556 59.8396 60.9091 56.3952 59.1146 53.4277C59.1146 53.4277 55.1694 50.1661 52.5759 50.2496Z" fill="white"/>
<path d="M51.7409 85.7351C50.4259 85.7351 36.7483 81.2681 35.9708 80.2818C34.7131 78.685 36.0908 76.1958 37.0928 74.3746C37.2597 74.0771 37.4111 73.8057 37.5363 73.5605C38.413 71.8436 40.777 63.3793 40.9387 61.6885C41.1214 59.7368 43.1148 55.9117 45.7867 53.339C47.681 51.6172 50.0207 50.4619 52.5394 50.0044H52.5707C55.2373 49.9105 59.1094 53.1094 59.2712 53.2451C59.2894 53.2599 59.3053 53.2775 59.3181 53.2972C61.1554 56.3081 62.0192 59.8125 61.7917 63.3323C61.5464 67.6323 59.84 69.7719 58.4727 71.494C57.9491 72.1144 57.4811 72.7797 57.0742 73.4822C55.7904 75.8931 54.1675 82.4371 53.9431 83.5381C53.5935 84.9941 52.8577 85.7351 51.7409 85.7351ZM52.602 50.5106C52.3411 50.5523 48.7299 51.1942 46.1468 53.6991C43.3288 56.4335 41.6119 60.1282 41.4502 61.7355C41.2832 63.5097 38.9192 71.9949 37.9955 73.7953C37.8651 74.0458 37.7137 74.3171 37.5468 74.625C36.6127 76.3158 35.3341 78.638 36.3778 79.9583C36.9571 80.6471 50.3059 85.2133 51.7357 85.2133C52.5915 85.2133 53.1343 84.6236 53.4056 83.4129C53.6509 82.2962 55.2947 75.6792 56.6097 73.2213C57.0284 72.4826 57.514 71.7838 58.0605 71.1339C59.4538 69.3857 61.0298 67.3975 61.2646 63.2645C61.4633 59.8745 60.6418 56.5028 58.9059 53.5843C58.551 53.3129 54.9555 50.4219 52.602 50.5106Z" fill="#263238"/>
<mask id="mask6_53_970" style="mask-type:luminance" maskUnits="userSpaceOnUse" x="35" y="50" width="27" height="36">
<mask id="mask7_53_970" style="mask-type:luminance" maskUnits="userSpaceOnUse" x="35" y="50" width="27" height="36">
<path d="M52.5759 50.2496C50.1141 50.704 47.827 51.8331 45.9693 53.5112C43.2035 56.1882 41.3666 59.9559 41.1997 61.7146C41.0327 63.4732 38.6583 71.9323 37.7659 73.6804C36.8736 75.4286 34.8279 78.4136 36.1743 80.12C36.8527 80.9758 50.3998 85.4741 51.7409 85.4741C53.0821 85.4741 53.4995 84.2217 53.6665 83.4703C53.8335 82.7188 55.5034 75.8513 56.8446 73.3413C58.1857 70.8312 61.1967 69.1665 61.5412 63.301C61.7556 59.8396 60.9091 56.3952 59.1146 53.4277C59.1146 53.4277 55.1694 50.1661 52.5759 50.2496Z" fill="white"/>
</mask>
<g mask="url(#mask7_53_970)">
<path d="M51.7409 85.735C50.4259 85.735 36.7483 81.268 35.9708 80.2817C34.7131 78.6849 36.0908 76.1957 37.0928 74.3744C37.2597 74.077 37.4111 73.8056 37.5363 73.5604C38.413 71.8435 40.777 63.3792 40.9387 61.6884C41.1214 59.7367 43.1148 55.9116 45.7867 53.3389C47.681 51.6171 50.0207 50.4617 52.5394 50.0043H52.5707C55.2373 49.9104 59.1094 53.1093 59.2712 53.2449C59.2894 53.2598 59.3053 53.2774 59.3181 53.2971C61.1554 56.308 62.0192 59.8124 61.7917 63.3322C61.5464 67.6322 59.84 69.7718 58.4727 71.4938C57.9491 72.1143 57.4811 72.7796 57.0742 73.4821C55.7904 75.893 54.1675 82.4369 53.9431 83.538C53.5935 84.994 52.8577 85.735 51.7409 85.735ZM52.602 50.5105C52.3411 50.5522 48.7299 51.1941 46.1468 53.6989C43.3288 56.4334 41.6119 60.1281 41.4502 61.7354C41.2832 63.5096 38.9192 71.9948 37.9955 73.7952C37.8651 74.0457 37.7137 74.317 37.5468 74.6249C36.6127 76.3157 35.3341 78.6379 36.3778 79.9582C36.9571 80.647 50.3059 85.2131 51.7357 85.2131C52.5915 85.2131 53.1343 84.6235 53.4056 83.4128C53.6509 82.296 55.2947 75.679 56.6097 73.2212C57.0284 72.4824 57.514 71.7837 58.0605 71.1338C59.4538 69.3856 61.0298 67.3974 61.2646 63.2644C61.4633 59.8744 60.6418 56.5027 58.9059 53.5841C58.551 53.3128 54.9555 50.4218 52.602 50.5105Z" fill="white"/>
</g>
</mask>
<g mask="url(#mask6_53_970)">
<path d="M48.4063 68.5611C52.2158 66.9277 54.5328 66.9277 56.9802 66.3798C59.4277 65.8319 52.3515 65.9728 50.8538 65.2944C49.3561 64.616 55.3469 63.7967 56.8446 63.3844C58.3423 62.9721 53.4421 63.661 50.5824 63.661C47.7227 63.661 44.3203 57.5345 47.3157 54.7896C50.3111 52.0447 55.2112 51.7942 55.2112 51.7942L55.0964 50.8653C54.3134 50.4701 53.4527 50.2527 52.5759 50.2287C50.1141 50.6831 47.827 51.8122 45.9693 53.4902C43.2035 56.1673 41.3666 59.935 41.1997 61.6936C41.0327 63.4522 38.6583 71.9114 37.7659 73.6595C36.8736 75.4077 34.8279 78.3927 36.1743 80.0991C36.8527 80.9549 50.3998 85.4532 51.7409 85.4532C51.9515 85.4528 52.1602 85.4139 52.3567 85.3384C50.0867 84.2947 45.891 82.6874 44.456 82.0143C42.4156 81.0593 49.6274 79.5668 51.1251 77.6569C52.6228 75.7469 45.818 78.6118 43.9132 78.7475C42.0085 78.8832 41.1892 77.9334 43.2296 77.3855C45.27 76.8376 50.7181 72.8924 53.1447 71.3947C55.5713 69.897 43.7515 74.3901 41.8467 74.1187C39.942 73.8474 44.6177 70.1945 48.4063 68.5611Z" fill="#92E3A9"/>
<path opacity="0.5" d="M48.4063 68.5611C52.2158 66.9277 54.5328 66.9277 56.9802 66.3798C59.4277 65.8319 52.3515 65.9728 50.8538 65.2944C49.3561 64.616 55.3469 63.7967 56.8446 63.3844C58.3423 62.9721 53.4421 63.661 50.5824 63.661C47.7227 63.661 44.3203 57.5345 47.3157 54.7896C50.3111 52.0447 55.2112 51.7942 55.2112 51.7942L55.0964 50.8653C54.3134 50.4701 53.4527 50.2527 52.5759 50.2287C50.1141 50.6831 47.827 51.8122 45.9693 53.4902C43.2035 56.1673 41.3666 59.935 41.1997 61.6936C41.0327 63.4522 38.6583 71.9114 37.7659 73.6595C36.8736 75.4077 34.8279 78.3927 36.1743 80.0991C36.8527 80.9549 50.3998 85.4532 51.7409 85.4532C51.9515 85.4528 52.1602 85.4139 52.3567 85.3384C50.0867 84.2947 45.891 82.6874 44.456 82.0143C42.4156 81.0593 49.6274 79.5668 51.1251 77.6569C52.6228 75.7469 45.818 78.6118 43.9132 78.7475C42.0085 78.8832 41.1892 77.9334 43.2296 77.3855C45.27 76.8376 50.7181 72.8924 53.1447 71.3947C55.5713 69.897 43.7515 74.3901 41.8467 74.1187C39.942 73.8474 44.6177 70.1945 48.4063 68.5611Z" fill="white"/>
</g>
<path d="M54.0684 65.117C52.5704 65.125 51.0765 64.9586 49.617 64.6213C49.5508 64.6029 49.4945 64.5592 49.4603 64.4996C49.4261 64.44 49.4168 64.3693 49.4344 64.3029C49.4423 64.2699 49.4567 64.2387 49.4768 64.2113C49.4969 64.1839 49.5223 64.1607 49.5515 64.1433C49.5806 64.1258 49.613 64.1143 49.6466 64.1094C49.6803 64.1046 49.7146 64.1065 49.7475 64.1151C52.3542 64.6957 55.0526 64.733 57.6743 64.2247C57.7079 64.2178 57.7425 64.2176 57.7761 64.2241C57.8098 64.2306 57.8418 64.2437 57.8704 64.2626C57.899 64.2815 57.9236 64.3059 57.9428 64.3343C57.9619 64.3627 57.9753 64.3946 57.9822 64.4282C57.9898 64.4614 57.9907 64.4959 57.9849 64.5295C57.979 64.5631 57.9664 64.5952 57.948 64.6239C57.9295 64.6526 57.9054 64.6773 57.8773 64.6966C57.8491 64.7158 57.8173 64.7293 57.7839 64.7361C56.5623 64.9938 55.3168 65.1215 54.0684 65.117Z" fill="#263238"/>
<path d="M55.2686 67.4235C52.5644 67.0962 49.9489 66.2492 47.5662 64.9291C47.5329 64.9141 47.5032 64.8922 47.4789 64.865C47.4546 64.8377 47.4363 64.8057 47.4251 64.7709C47.414 64.7361 47.4103 64.6994 47.4143 64.6631C47.4182 64.6268 47.4297 64.5918 47.4481 64.5602C47.4664 64.5286 47.4912 64.5013 47.5208 64.4799C47.5504 64.4585 47.5841 64.4436 47.6198 64.436C47.6556 64.4285 47.6925 64.4286 47.7282 64.4362C47.7639 64.4438 47.7976 64.4589 47.8271 64.4803C47.8636 64.4803 51.5113 66.5677 55.3156 66.9017C55.3848 66.9051 55.4498 66.936 55.4963 66.9873C55.5427 67.0387 55.5669 67.1064 55.5635 67.1756C55.56 67.2449 55.5292 67.3098 55.4778 67.3563C55.4264 67.4028 55.3587 67.427 55.2895 67.4235H55.2686Z" fill="#263238"/>
<path d="M53.6561 72.856C53.6113 72.8553 53.5673 72.8434 53.5281 72.8216C53.489 72.7997 53.4558 72.7685 53.4317 72.7307C53.4137 72.7013 53.4017 72.6686 53.3964 72.6345C53.3912 72.6004 53.3927 72.5657 53.401 72.5322C53.4092 72.4987 53.424 72.4672 53.4445 72.4395C53.465 72.4117 53.4908 72.3883 53.5204 72.3706C54.2315 71.9416 54.918 71.473 55.5765 70.9669C55.632 70.9245 55.702 70.9057 55.7714 70.9145C55.8407 70.9233 55.9038 70.9589 55.947 71.0138C55.9878 71.069 56.0056 71.1379 55.9969 71.2059C55.9881 71.274 55.9534 71.3361 55.9 71.3791C55.2309 71.892 54.5341 72.3676 53.8126 72.8038C53.7675 72.8377 53.7125 72.856 53.6561 72.856Z" fill="#263238"/>
<path d="M40.3908 78.5337C40.3216 78.5441 40.2511 78.5265 40.1948 78.4849C40.1385 78.4434 40.1011 78.3811 40.0907 78.3119C40.0803 78.2427 40.0979 78.1722 40.1395 78.1159C40.1811 78.0597 40.2433 78.0222 40.3125 78.0118C44.1924 76.8047 47.966 75.2792 51.5948 73.4509C51.6564 73.4184 51.7284 73.4117 51.7949 73.4322C51.8615 73.4528 51.9171 73.4989 51.9496 73.5605C51.9822 73.6221 51.9889 73.6941 51.9683 73.7606C51.9478 73.8272 51.9016 73.8828 51.8401 73.9154C48.1858 75.7635 44.3819 77.2997 40.4691 78.5076C40.445 78.5214 40.4184 78.5303 40.3908 78.5337Z" fill="#263238"/>
<path d="M37.9538 79.2642C37.8971 79.2651 37.8417 79.2471 37.7964 79.2131C37.7511 79.1791 37.7183 79.131 37.7033 79.0764C37.6938 79.0431 37.691 79.0083 37.695 78.974C37.6991 78.9397 37.71 78.9065 37.7269 78.8764C37.7439 78.8463 37.7667 78.8199 37.794 78.7986C37.8213 78.7774 37.8526 78.7619 37.8859 78.7528C37.8859 78.7528 38.1782 78.6745 38.6896 78.5232C38.7238 78.5133 38.7597 78.5102 38.7952 78.5141C38.8306 78.518 38.865 78.5289 38.8962 78.5461C38.9275 78.5633 38.955 78.5865 38.9773 78.6144C38.9996 78.6422 39.0162 78.6742 39.0262 78.7085C39.0361 78.7427 39.0392 78.7786 39.0353 78.8141C39.0313 78.8495 39.0204 78.8839 39.0032 78.9151C38.986 78.9464 38.9628 78.9739 38.935 78.9962C38.9071 79.0185 38.8752 79.0351 38.8409 79.045L38.0216 79.2851L37.9538 79.2642Z" fill="#263238"/>
<path d="M40.3021 80.4958C40.2329 80.5082 40.1616 80.4927 40.1038 80.4526C40.0461 80.4124 40.0067 80.351 39.9942 80.2818C39.9818 80.2126 39.9973 80.1413 40.0374 80.0836C40.0776 80.0258 40.139 79.9864 40.2082 79.9739C42.8661 78.9667 45.467 77.8152 47.9993 76.5245C48.0294 76.5083 48.0624 76.4983 48.0964 76.495C48.1304 76.4917 48.1647 76.4953 48.1973 76.5055C48.2298 76.5158 48.2601 76.5324 48.2861 76.5545C48.3122 76.5766 48.3335 76.6036 48.3489 76.6341C48.3654 76.6639 48.3757 76.6966 48.3793 76.7303C48.383 76.7641 48.3798 76.7983 48.3701 76.8308C48.3604 76.8634 48.3443 76.8937 48.3227 76.9199C48.3012 76.9462 48.2746 76.9679 48.2446 76.9837C45.6988 78.2818 43.0859 79.4436 40.4169 80.4645C40.3815 80.4834 40.3422 80.4941 40.3021 80.4958Z" fill="#263238"/>
<path d="M58.3527 55.2229C58.3527 55.2229 59.8452 59.3402 60.9619 59.7107C62.0787 60.0813 67.1353 58.4009 67.6937 55.9743C68.2521 53.5478 60.3879 49.6131 58.3475 48.6685C56.3071 47.724 49.7475 47.3587 46.0058 46.8003C42.2642 46.2419 38.8983 44.1911 36.6596 43.6223C34.4209 43.0535 28.2422 43.998 28.2422 43.998L32.5422 46.8003C32.5422 46.8003 39.4619 48.4807 42.0816 48.4807C44.7012 48.4807 46.9399 47.3587 50.4937 48.4807C54.0475 49.6026 58.5353 50.7246 61.3376 52.0344C64.1399 53.3442 66.3839 54.0905 66.3839 55.776C66.3839 57.4616 63.4041 58.9645 62.8405 58.9645C62.277 58.9645 60.9671 54.4766 59.4747 54.1009C59.4747 54.1009 57.6012 53.1668 58.3527 55.2229Z" fill="#263238"/>
<path d="M61.3794 60.0081C61.2137 60.012 61.0483 59.9909 60.8889 59.9455C59.6782 59.5437 58.2797 55.729 58.1075 55.2958C57.8361 54.5548 57.8518 54.0643 58.1544 53.7929C58.5823 53.412 59.3599 53.7407 59.5634 53.8399C60.5758 54.1217 61.416 55.8647 62.0944 57.2632C62.3029 57.7634 62.5654 58.2393 62.8771 58.6826C63.399 58.62 66.1282 57.2162 66.1282 55.7707C66.1282 54.487 64.5627 53.7668 62.3448 52.7753C61.99 52.6136 61.6142 52.4466 61.2333 52.2535C58.7683 51.2294 56.2368 50.3734 53.6561 49.6912C52.5446 49.3625 51.4435 49.0389 50.4207 48.7154C48.0828 47.9796 46.319 48.2353 44.6178 48.4858C43.7812 48.6285 42.9353 48.7087 42.0868 48.7258C39.4776 48.7258 32.7719 47.1081 32.4849 47.0403L32.4066 47.0037L28.1066 44.1962C28.0629 44.1671 28.029 44.1254 28.0093 44.0767C27.9897 44.0279 27.9852 43.9744 27.9965 43.9231C28.0078 43.8718 28.0343 43.8251 28.0726 43.7891C28.1108 43.7531 28.1591 43.7295 28.211 43.7213C28.4615 43.6848 34.4731 42.7872 36.7275 43.3508C37.7711 43.6583 38.7913 44.0402 39.7803 44.4937C41.7731 45.4332 43.8774 46.1154 46.0424 46.5236C47.2322 46.7063 48.6882 46.8628 50.2172 47.0455C53.5517 47.4056 57.0011 47.7761 58.4362 48.4336C59.4799 48.9032 68.5965 53.1302 67.9338 56.0212C67.652 57.2423 66.4048 58.166 65.4081 58.7296C64.1738 59.4428 62.7991 59.879 61.3794 60.0081ZM58.598 55.1184C59.1564 56.6839 60.3201 59.2045 61.0507 59.4497C61.6964 59.5117 62.3477 59.426 62.9554 59.1992H62.8406C62.4701 59.1992 62.2144 58.7035 61.6247 57.4824C61.035 56.2613 60.1948 54.5235 59.4121 54.3513H59.3547C59.0937 54.2208 58.6345 54.0956 58.4988 54.2156C58.4675 54.2156 58.3318 54.4139 58.598 55.1497V55.1184ZM47.3261 47.7187C48.4305 47.7206 49.5277 47.8967 50.5772 48.2405C51.6209 48.5588 52.6907 48.8824 53.8022 49.2111C56.5732 50.02 59.4382 50.8602 61.4525 51.8204L62.5588 52.3422C64.8445 53.3859 66.6501 54.1895 66.6501 55.8125C66.6501 57.2058 64.8967 58.453 63.7225 58.9801C64.2224 58.7927 64.7074 58.5676 65.1732 58.3069C66.4518 57.592 67.2606 56.7413 67.4433 55.9377C67.8712 54.0852 62.0265 50.6619 58.2431 48.945C56.8811 48.324 53.3221 47.9378 50.1806 47.5986C48.6151 47.4316 47.1696 47.2751 45.9746 47.0768C43.762 46.6556 41.612 45.9541 39.5767 44.9894C38.6115 44.5464 37.6157 44.1732 36.597 43.8727C34.8697 43.4395 30.6375 43.9353 28.9729 44.1597L32.6258 46.5549C33.2155 46.7011 39.6081 48.2196 42.0607 48.2196C42.8846 48.2007 43.7061 48.1222 44.5186 47.9848C45.4468 47.8306 46.3853 47.7468 47.3261 47.7343V47.7187Z" fill="#263238"/>
<path d="M62.9554 34.7666C62.9554 34.7666 65.0427 37.1932 65.0427 37.6158C65.0427 38.0385 65.1262 38.6178 65.1262 38.8683C65.1262 39.1188 68.059 40.4338 68.059 40.9557C68.059 41.4775 66.1334 42.6308 66.1334 42.6308V47.3274C66.1334 48.2458 65.6116 48.4963 64.7088 48.8303C63.806 49.1643 61.6142 48.7468 61.6142 48.7468L59.1041 53.4434L53.4995 49.2686L55.0651 45.8401L54.5432 44.8382C54.5432 44.8382 51.7827 43.2726 52.3671 40.6634C52.9516 38.0542 55.1277 37.7359 55.8009 36.7287C56.474 35.7216 57.5543 33.4672 58.5614 33.1332C59.5686 32.7992 62.9554 34.7666 62.9554 34.7666Z" fill="white"/>
<path d="M59.1041 53.6887C59.0475 53.6899 58.9922 53.6715 58.9476 53.6365L53.343 49.4617C53.2946 49.4263 53.2599 49.3754 53.2447 49.3174C53.2295 49.2594 53.2347 49.198 53.2595 49.1434L54.7989 45.8297L54.3867 45.0052C53.9431 44.7234 51.5896 43.0848 52.1532 40.5799C52.5706 38.7535 53.7187 37.9707 54.6319 37.381C55.0107 37.1701 55.3469 36.8905 55.6234 36.5565C55.78 36.3269 55.9574 36.0347 56.1453 35.6955C56.8185 34.5579 57.6534 33.1437 58.5145 32.8566C59.5581 32.507 62.5066 34.2082 63.0806 34.5579C63.1059 34.5692 63.1275 34.5872 63.1432 34.61C63.9521 35.5441 65.2984 37.1775 65.2984 37.6263C65.2984 37.8455 65.3245 38.1482 65.3506 38.3778C65.3506 38.5395 65.3506 38.6857 65.3819 38.7952C65.6926 39.0111 66.0149 39.2097 66.3473 39.3901C67.6833 40.1625 68.3147 40.5695 68.3147 40.9557C68.3147 41.4775 67.1614 42.2968 66.3891 42.7769V47.317C66.3891 48.4024 65.7577 48.7155 64.7922 49.0651C63.973 49.3626 62.3135 49.1225 61.7499 49.0286L59.3285 53.5478C59.3111 53.5808 59.2866 53.6096 59.2569 53.6321C59.2271 53.6546 59.1928 53.6704 59.1563 53.6782L59.1041 53.6887ZM53.8231 49.1643L59.0415 53.0364L61.4107 48.6216C61.4358 48.572 61.4763 48.5319 61.5263 48.5074C61.5762 48.4829 61.6327 48.4754 61.6873 48.4859C62.277 48.6007 63.9469 48.8355 64.6461 48.5798C65.5541 48.2511 65.8986 48.058 65.8986 47.3222V42.6256C65.8983 42.5805 65.9097 42.5362 65.9316 42.4969C65.9536 42.4576 65.9853 42.4246 66.0238 42.4012C66.9422 41.8428 67.7876 41.1592 67.8242 40.9452C67.2971 40.5098 66.725 40.132 66.1177 39.8181C65.1262 39.2492 64.8914 39.1031 64.8914 38.8579C64.8914 38.7535 64.8914 38.5917 64.8601 38.4039C64.8288 38.216 64.8079 37.8507 64.8079 37.6054C64.2309 36.6595 63.5614 35.7733 62.8092 34.9597C61.5464 34.2082 59.3546 33.1176 58.7128 33.3315C58.0709 33.5455 57.2203 34.9336 56.6254 35.9407C56.4271 36.2799 56.2444 36.5878 56.1035 36.8279C55.7928 37.2206 55.4081 37.5486 54.9711 37.7933C54.084 38.383 53.0768 39.0509 52.7115 40.6739C52.1897 43.0535 54.7363 44.5564 54.7624 44.5721C54.8071 44.5977 54.8433 44.6358 54.8668 44.6816L55.3886 45.6888C55.4053 45.7239 55.414 45.7622 55.414 45.801C55.414 45.8398 55.4053 45.8782 55.3886 45.9132L53.8231 49.1643Z" fill="#263238"/>
<mask id="mask8_53_970" style="mask-type:luminance" maskUnits="userSpaceOnUse" x="52" y="33" width="17" height="21">
<mask id="mask9_53_970" style="mask-type:luminance" maskUnits="userSpaceOnUse" x="52" y="33" width="17" height="21">
<path d="M62.9554 34.7666C62.9554 34.7666 65.0427 37.1932 65.0427 37.6158C65.0427 38.0385 65.1262 38.6178 65.1262 38.8683C65.1262 39.1188 68.059 40.4338 68.059 40.9557C68.059 41.4775 66.1334 42.6308 66.1334 42.6308V47.3274C66.1334 48.2458 65.6116 48.4963 64.7088 48.8303C63.806 49.1643 61.6142 48.7468 61.6142 48.7468L59.1041 53.4434L53.4995 49.2686L55.0651 45.8401L54.5432 44.8382C54.5432 44.8382 51.7827 43.2726 52.3671 40.6634C52.9516 38.0542 55.1277 37.7359 55.8009 36.7287C56.474 35.7216 57.5543 33.4672 58.5614 33.1332C59.5686 32.7992 62.9554 34.7666 62.9554 34.7666Z" fill="white"/>
</mask>
<g mask="url(#mask9_53_970)">
<path d="M59.1042 53.6887C59.0475 53.6899 58.9922 53.6715 58.9476 53.6365L53.343 49.4617C53.2946 49.4263 53.26 49.3754 53.2447 49.3174C53.2295 49.2594 53.2348 49.198 53.2595 49.1434L54.7989 45.8297L54.3867 45.0052C53.9431 44.7234 51.5896 43.0848 52.1532 40.5799C52.5707 38.7535 53.7187 37.9707 54.632 37.381C55.0107 37.1701 55.3469 36.8905 55.6235 36.5565C55.78 36.3269 55.9574 36.0347 56.1453 35.6955C56.8185 34.5579 57.6534 33.1437 58.5145 32.8566C59.5582 32.507 62.5066 34.2082 63.0806 34.5579C63.1059 34.5692 63.1275 34.5872 63.1432 34.61C63.9521 35.5441 65.2985 37.1775 65.2985 37.6263C65.2985 37.8455 65.3246 38.1482 65.3506 38.3778C65.3506 38.5395 65.3506 38.6857 65.382 38.7952C65.6926 39.0111 66.0149 39.2097 66.3474 39.3901C67.6833 40.1625 68.3147 40.5695 68.3147 40.9557C68.3147 41.4775 67.1615 42.2968 66.3891 42.7769V47.317C66.3891 48.4024 65.7577 48.7155 64.7923 49.0651C63.973 49.3626 62.3135 49.1225 61.7499 49.0286L59.3286 53.5478C59.3111 53.5808 59.2867 53.6096 59.2569 53.6321C59.2272 53.6546 59.1928 53.6704 59.1564 53.6782L59.1042 53.6887ZM53.8231 49.1643L59.0415 53.0364L61.4107 48.6216C61.4358 48.572 61.4764 48.5319 61.5263 48.5074C61.5762 48.4829 61.6327 48.4754 61.6873 48.4859C62.277 48.6007 63.9469 48.8355 64.6462 48.5798C65.5542 48.2511 65.8986 48.058 65.8986 47.3222V42.6256C65.8983 42.5805 65.9097 42.5362 65.9317 42.4969C65.9536 42.4576 65.9854 42.4246 66.0238 42.4012C66.9423 41.8428 67.7877 41.1592 67.8242 40.9452C67.2971 40.5098 66.7251 40.132 66.1178 39.8181C65.1263 39.2492 64.8914 39.1031 64.8914 38.8579C64.8914 38.7535 64.8914 38.5917 64.8601 38.4039C64.8288 38.216 64.8079 37.8507 64.8079 37.6054C64.2309 36.6595 63.5614 35.7733 62.8093 34.9597C61.5464 34.2082 59.3547 33.1176 58.7128 33.3315C58.0709 33.5455 57.2203 34.9336 56.6254 35.9407C56.4271 36.2799 56.2445 36.5878 56.1036 36.8279C55.7928 37.2206 55.4081 37.5486 54.9712 37.7933C54.084 38.383 53.0769 39.0509 52.7116 40.6739C52.1897 43.0535 54.7363 44.5564 54.7624 44.5721C54.8071 44.5977 54.8433 44.6358 54.8668 44.6816L55.3886 45.6888C55.4053 45.7239 55.414 45.7622 55.414 45.801C55.414 45.8398 55.4053 45.8782 55.3886 45.9132L53.8231 49.1643Z" fill="white"/>
</g>
</mask>
<g mask="url(#mask8_53_970)">
<path d="M62.6997 47.5935C59.84 46.6438 60.0905 44.8747 59.9757 42.2864C59.8609 39.698 57.6639 35.7529 57.6639 35.7529L56.4636 35.6694C56.234 36.0608 56.0201 36.4208 55.8427 36.7131C55.1695 37.7202 52.9934 38.0542 52.4089 40.6478C51.8244 43.2413 54.585 44.8225 54.585 44.8225L55.1069 45.8245L53.5413 49.253L59.1459 53.4277L61.656 48.7311C61.656 48.7311 63.8321 49.1486 64.7505 48.8146C65.0799 48.7103 65.394 48.5629 65.6846 48.3763C64.6728 48.1844 63.6755 47.9228 62.6997 47.5935Z" fill="#92E3A9"/>
<path opacity="0.5" d="M62.6997 47.5935C59.84 46.6438 60.0905 44.8747 59.9757 42.2864C59.8609 39.698 57.6639 35.7529 57.6639 35.7529L56.4636 35.6694C56.234 36.0608 56.0201 36.4208 55.8427 36.7131C55.1695 37.7202 52.9934 38.0542 52.4089 40.6478C51.8244 43.2413 54.585 44.8225 54.585 44.8225L55.1069 45.8245L53.5413 49.253L59.1459 53.4277L61.656 48.7311C61.656 48.7311 63.8321 49.1486 64.7505 48.8146C65.0799 48.7103 65.394 48.5629 65.6846 48.3763C64.6728 48.1844 63.6755 47.9228 62.6997 47.5935Z" fill="white"/>
<path d="M61.9483 38.6126C61.9044 38.6113 61.8616 38.5993 61.8235 38.5774C61.7855 38.5556 61.7535 38.5248 61.7302 38.4876C61.707 38.4504 61.6933 38.4081 61.6904 38.3643C61.6874 38.3206 61.6953 38.2768 61.7134 38.2369C61.9224 37.8927 62.2082 37.6016 62.5484 37.3862C63.2633 36.8644 64.3748 37.5115 64.4218 37.5376C64.4814 37.5734 64.5246 37.6312 64.5421 37.6985C64.5597 37.7658 64.5502 37.8373 64.5157 37.8977C64.499 37.9275 64.4764 37.9537 64.4493 37.9747C64.4223 37.9956 64.3913 38.0109 64.3582 38.0197C64.3251 38.0285 64.2906 38.0305 64.2567 38.0257C64.2228 38.0208 64.1902 38.0092 64.1609 37.9916C63.9208 37.8507 63.2215 37.548 62.8563 37.8089C62.5871 37.9792 62.3575 38.2052 62.1831 38.4717C62.1604 38.5142 62.1265 38.5498 62.0852 38.5747C62.0438 38.5995 61.9965 38.6126 61.9483 38.6126Z" fill="#263238"/>
<path d="M64.2913 39.9641H62.8823C62.8227 39.9654 62.7644 39.9457 62.7177 39.9086C62.671 39.8714 62.6388 39.8191 62.6266 39.7606C62.6134 39.7019 62.6213 39.6404 62.649 39.5869C62.6767 39.5335 62.7224 39.4915 62.778 39.4684L64.1139 38.8787C64.1454 38.865 64.1793 38.8576 64.2137 38.857C64.2481 38.8564 64.2822 38.8626 64.3142 38.8752C64.3462 38.8878 64.3754 38.9066 64.4001 38.9305C64.4248 38.9543 64.4446 38.9829 64.4583 39.0144C64.472 39.0459 64.4794 39.0798 64.48 39.1142C64.4806 39.1486 64.4744 39.1827 64.4618 39.2147C64.4492 39.2467 64.4304 39.2759 64.4065 39.3006C64.3827 39.3253 64.3541 39.3451 64.3226 39.3588L64.1295 39.4423H64.3017C64.371 39.4423 64.4373 39.4698 64.4862 39.5187C64.5352 39.5677 64.5627 39.634 64.5627 39.7032C64.5627 39.7384 64.5556 39.7732 64.5419 39.8055C64.5281 39.8379 64.5079 39.8671 64.4826 39.8915C64.4573 39.9159 64.4272 39.9349 64.3944 39.9474C64.3615 39.9598 64.3264 39.9655 64.2913 39.9641Z" fill="#263238"/>
</g>
<path d="M56.9281 40.9609C56.9637 41.1162 57.0474 41.2564 57.1673 41.3613C57.2873 41.4663 57.4373 41.5307 57.596 41.5454C57.7336 41.5636 57.8735 41.5541 58.0074 41.5176C58.1414 41.4811 58.2667 41.4183 58.376 41.3328C58.4853 41.2472 58.5765 41.1407 58.6442 41.0195C58.7119 40.8983 58.7547 40.7649 58.7702 40.6269C58.7702 40.1051 58.1022 39.0353 58.6032 38.7013C59.1042 38.3673 60.0226 38.2838 59.8556 37.3602C59.6886 36.4365 58.7702 36.6922 58.9372 35.6903C59.1042 34.6883 62.1987 34.6831 62.9554 34.7666C63.712 34.8501 63.7068 33.2637 62.8719 31.4216C62.0369 29.5795 58.7702 28.9115 58.1022 29.6629C57.91 29.8454 57.7944 30.0942 57.7789 30.3588C57.7634 30.6233 57.8491 30.8839 58.0187 31.0876C58.0187 31.0876 54.3345 30.4196 53.917 31.0876C53.4995 31.7555 53.917 32.0895 53.917 32.0895C53.917 32.0895 50.9895 31.5051 48.9804 35.1893C46.9713 38.8735 49.5648 42.7873 50.9895 43.831C52.4141 44.8747 54.585 45.8401 56.2601 45.2557C57.9352 44.6712 55.4199 42.6464 55.2529 41.6549C55.086 40.6634 56.9281 40.9609 56.9281 40.9609Z" fill="#263238"/>
<path d="M55.1747 45.6627C53.3378 45.6627 51.4539 44.4572 50.8381 44.0189C49.3561 42.9752 46.6634 38.91 48.7508 35.064C50.3163 32.1573 52.5237 31.8025 53.4839 31.8025C53.4461 31.5012 53.5204 31.1966 53.6926 30.9466C54.0997 30.3048 56.2497 30.5344 57.5595 30.7431C57.5056 30.5223 57.509 30.2914 57.5692 30.0722C57.6295 29.8531 57.7447 29.6529 57.9039 29.4907C58.2118 29.1463 58.885 29.021 59.746 29.1515C61.0141 29.3394 62.5483 30.0856 63.1067 31.3119C63.7851 32.8044 63.9625 34.1821 63.5503 34.7509C63.4809 34.8496 63.386 34.9276 63.2756 34.9763C63.1653 35.025 63.0437 35.0427 62.9241 35.0275C61.8804 34.9127 59.3077 35.0588 59.1929 35.732C59.1302 36.1233 59.2503 36.2121 59.4903 36.3947C59.6517 36.4977 59.7902 36.6329 59.8971 36.7918C60.0039 36.9508 60.0768 37.13 60.1113 37.3184C60.2783 38.2107 59.5895 38.5134 59.1407 38.7169C59.0044 38.7729 58.8734 38.841 58.7493 38.9204C58.5823 39.03 58.7493 39.5414 58.8589 39.8806C58.9515 40.1199 59.0095 40.3712 59.0311 40.6269C59.0248 40.791 58.9833 40.9519 58.9095 41.0986C58.8357 41.2454 58.7312 41.3746 58.6032 41.4775C58.4632 41.6043 58.2975 41.6993 58.1173 41.7561C57.9372 41.8128 57.7469 41.8299 57.5595 41.8062C57.3802 41.7849 57.2095 41.7175 57.064 41.6105C56.9186 41.5034 56.8034 41.3605 56.7298 41.1957C56.3366 41.1094 55.9257 41.1609 55.566 41.3418C55.5361 41.3742 55.5154 41.4141 55.5062 41.4572C55.4971 41.5004 55.4997 41.5453 55.5139 41.5871C55.6704 42.0116 55.9 42.4054 56.1923 42.7508C56.7141 43.4761 57.2359 44.2276 57.0533 44.8381C56.9941 44.993 56.8988 45.1315 56.7754 45.2423C56.652 45.353 56.504 45.4327 56.3436 45.4748C55.9672 45.6022 55.5721 45.6657 55.1747 45.6627ZM53.4369 32.3139C52.5863 32.3139 50.6659 32.6374 49.21 35.3145C47.2687 38.8682 49.7684 42.6203 51.1356 43.5909C52.5028 44.5616 54.6633 45.5113 56.1714 44.9843C56.4949 44.8695 56.5419 44.7286 56.5523 44.6816C56.6724 44.3163 56.1714 43.6379 55.7643 43.0534C55.4194 42.6479 55.1587 42.1778 54.9972 41.6706C54.9701 41.5455 54.9745 41.4156 55.0101 41.2926C55.0456 41.1696 55.1111 41.0574 55.2008 40.9661C55.6913 40.486 56.8446 40.679 56.975 40.7051C57.0271 40.7141 57.0752 40.739 57.1126 40.7763C57.1499 40.8137 57.1748 40.8618 57.1838 40.9139C57.2124 41.0142 57.2705 41.1036 57.3505 41.1706C57.4305 41.2376 57.5288 41.279 57.6325 41.2896C57.7461 41.3003 57.8606 41.2878 57.9692 41.2528C58.0778 41.2178 58.1781 41.1611 58.264 41.0861C58.3337 41.0301 58.3914 40.9605 58.4336 40.8816C58.4757 40.8026 58.5015 40.716 58.5092 40.6269C58.4819 40.4273 58.4329 40.2313 58.3631 40.0424C58.1857 39.4945 57.9613 38.8161 58.4571 38.4769C58.607 38.3845 58.764 38.3042 58.9267 38.2368C59.4486 38.0124 59.6834 37.8715 59.5999 37.4019C59.5766 37.278 59.5268 37.1607 59.4538 37.058C59.3808 36.9553 59.2865 36.8697 59.1772 36.807C58.9738 36.698 58.8123 36.5246 58.7179 36.3141C58.6234 36.1035 58.6015 35.8676 58.6554 35.6432C58.8954 34.1977 62.9136 34.5004 62.9554 34.5056C62.9832 34.5104 63.0118 34.507 63.0377 34.4959C63.0636 34.4848 63.0858 34.4664 63.1015 34.443C63.3154 34.1456 63.2998 33.0497 62.6057 31.5259C62.1308 30.4822 60.7375 29.8247 59.6416 29.6577C58.9006 29.5481 58.4153 29.6577 58.2692 29.8351C58.1213 29.9701 58.0303 30.1564 58.0148 30.3561C57.9993 30.5558 58.0604 30.7539 58.1857 30.9101C58.2212 30.9513 58.2433 31.0024 58.2489 31.0565C58.2545 31.1106 58.2434 31.1652 58.217 31.2128C58.1901 31.2589 58.1496 31.2957 58.101 31.3181C58.0525 31.3405 57.9983 31.3475 57.9457 31.338C56.0722 30.9988 54.2927 30.9414 54.1101 31.218C53.8179 31.6877 54.0527 31.8807 54.0527 31.8807C54.0981 31.9173 54.1299 31.968 54.1432 32.0247C54.1564 32.0815 54.1503 32.141 54.1258 32.1938C54.1012 32.2468 54.0595 32.29 54.0075 32.3165C53.9554 32.343 53.896 32.3512 53.8387 32.34C53.7057 32.3204 53.5713 32.3117 53.4369 32.3139Z" fill="#263238"/>
<path d="M57.763 41.9627C57.763 41.9627 57.2412 40.1258 55.9261 39.9589C54.6111 39.7919 53.8387 41.2948 54.585 42.7194C55.3312 44.144 56.9281 45.146 57.429 44.979C57.93 44.812 58.1857 43.8883 58.1857 43.8883" fill="white"/>
<path d="M57.3142 45.2556C56.5366 45.2556 55.0703 44.2119 54.3553 42.8394C54.1314 42.4705 54.0131 42.0473 54.0131 41.6157C54.0131 41.1842 54.1314 40.7609 54.3553 40.392C54.5252 40.1414 54.762 39.9435 55.0387 39.8208C55.3155 39.6981 55.6211 39.6556 55.9209 39.6979C57.4133 39.8858 57.9561 41.8166 58.0082 41.8949C58.0269 41.9641 58.0174 42.0379 57.9816 42.1C57.9459 42.1622 57.887 42.2076 57.8178 42.2263C57.7486 42.245 57.6748 42.2354 57.6126 42.1997C57.5505 42.1639 57.5051 42.105 57.4864 42.0358C57.4864 42.0358 57.0115 40.3607 55.8635 40.2146C55.656 40.18 55.4429 40.2065 55.2502 40.2909C55.0575 40.3752 54.8935 40.5136 54.778 40.6894C54.6072 40.9777 54.517 41.3067 54.517 41.6418C54.517 41.9769 54.6072 42.3059 54.778 42.5942C55.5138 43.9771 56.9854 44.8329 57.309 44.7285C57.6325 44.6242 57.8308 44.0762 57.8934 43.8205C57.9114 43.7513 57.9562 43.6921 58.0178 43.6559C58.0795 43.6197 58.153 43.6094 58.2222 43.6274C58.2914 43.6454 58.3506 43.6902 58.3868 43.7518C58.423 43.8135 58.4333 43.887 58.4153 43.9562C58.384 44.0658 58.1074 44.9999 57.4916 45.2243C57.4344 45.2438 57.3746 45.2544 57.3142 45.2556Z" fill="#263238"/>
<path d="M53.082 47.9066L60.6958 52.9268L60.2731 56.6058L51.9914 49.9157L53.082 47.9066Z" fill="white"/>
<path d="M60.2731 56.8771C60.2138 56.8791 60.156 56.8586 60.1113 56.8197L51.8296 50.1297C51.7823 50.091 51.7497 50.0372 51.7373 49.9773C51.725 49.9175 51.7336 49.8552 51.7618 49.8009L52.8524 47.7918C52.8691 47.7598 52.8923 47.7316 52.9206 47.7091C52.9489 47.6867 52.9816 47.6705 53.0166 47.6616C53.0516 47.6528 53.0881 47.6514 53.1237 47.6577C53.1592 47.6639 53.1931 47.6776 53.223 47.6979L60.8367 52.7024C60.8768 52.7297 60.9088 52.7674 60.929 52.8116C60.9492 52.8558 60.957 52.9046 60.9515 52.9529L60.534 56.6058C60.5284 56.6526 60.5105 56.697 60.482 56.7346C60.4536 56.7722 60.4157 56.8016 60.3722 56.8197C60.3431 56.845 60.3095 56.8645 60.2731 56.8771ZM52.3254 49.8583L60.0696 56.1205L60.414 53.0729L53.176 48.298L52.3254 49.8583Z" fill="#263238"/>
<path d="M50.358 53.2555L46.893 54.9828C46.152 55.3585 30.9298 59.6794 30.314 60.5509C29.6982 61.4224 24.3754 80.4749 24.3754 80.4749L27.8404 81.4664L35.2245 67.7315C35.2245 67.7315 53.7866 63.7707 54.8981 63.4002C56.0096 63.0296 57.3716 61.4171 57.6221 59.9351" fill="white"/>
<path d="M27.8248 81.7274H27.7517L24.2658 80.7254C24.2325 80.7165 24.2014 80.7009 24.1743 80.6796C24.1472 80.6583 24.1247 80.6317 24.1081 80.6015C24.0915 80.5713 24.0812 80.538 24.0778 80.5037C24.0744 80.4694 24.078 80.4348 24.0884 80.4019C24.6102 78.4502 29.4373 61.2815 30.0635 60.3996C30.4653 59.8412 34.6192 58.4896 42.6556 56.0422C44.743 55.4055 46.5225 54.8576 46.7416 54.7532L50.2067 53.0207C50.2371 53.0046 50.2703 52.9949 50.3046 52.992C50.3388 52.9891 50.3733 52.9931 50.4059 53.0038C50.4385 53.0146 50.4687 53.0317 50.4945 53.0544C50.5203 53.077 50.5414 53.1046 50.5563 53.1355C50.5715 53.1663 50.5804 53.1998 50.5825 53.2341C50.5847 53.2684 50.5801 53.3027 50.5689 53.3352C50.5578 53.3677 50.5403 53.3977 50.5175 53.4234C50.4948 53.4491 50.4672 53.4701 50.4363 53.4851L46.9712 55.2177C46.7312 55.3377 45.3796 55.7395 42.7965 56.5379C38.6635 57.8008 30.9715 60.1491 30.4757 60.7127C29.98 61.2763 26.7811 72.6629 24.6467 80.2975L27.663 81.1586L34.9688 67.5906C34.9868 67.557 35.0121 67.5279 35.0428 67.5053C35.0735 67.4827 35.1088 67.4673 35.1462 67.4601C35.3289 67.4184 53.703 63.4993 54.7885 63.134C55.7696 62.8105 57.1003 61.3128 57.3403 59.8777C57.3447 59.8436 57.356 59.8108 57.3735 59.7813C57.3911 59.7517 57.4146 59.7261 57.4425 59.7061C57.4704 59.686 57.5021 59.6719 57.5357 59.6646C57.5693 59.6573 57.604 59.657 57.6378 59.6638C57.6715 59.6688 57.704 59.6806 57.7331 59.6984C57.7623 59.7162 57.7876 59.7396 57.8075 59.7673C57.8274 59.7951 57.8416 59.8265 57.8492 59.8598C57.8568 59.8931 57.8577 59.9276 57.8517 59.9612C57.6012 61.4589 56.2236 63.2071 54.9555 63.6141C53.8753 63.9742 37.0979 67.5593 35.3706 67.9298L28.0074 81.5552C27.9939 81.5969 27.9701 81.6346 27.9382 81.6647C27.9062 81.6948 27.8672 81.7163 27.8248 81.7274Z" fill="#263238"/>
<mask id="mask10_53_970" style="mask-type:luminance" maskUnits="userSpaceOnUse" x="24" y="53" width="34" height="29">
<mask id="mask11_53_970" style="mask-type:luminance" maskUnits="userSpaceOnUse" x="24" y="53" width="34" height="29">
<path d="M50.358 53.2555L46.893 54.9828C46.152 55.3585 30.9298 59.6794 30.314 60.5509C29.6982 61.4224 24.3754 80.4749 24.3754 80.4749L27.8404 81.4664L35.2245 67.7315C35.2245 67.7315 53.7866 63.7707 54.8981 63.4002C56.0096 63.0296 57.3716 61.4171 57.6221 59.9351" fill="white"/>
</mask>
<g mask="url(#mask11_53_970)">
<path d="M27.8248 81.7272H27.7517L24.2658 80.7252C24.2325 80.7163 24.2014 80.7007 24.1743 80.6794C24.1472 80.6581 24.1247 80.6315 24.1081 80.6013C24.0916 80.5711 24.0813 80.5378 24.0779 80.5035C24.0745 80.4692 24.0781 80.4346 24.0884 80.4017C24.6102 78.45 29.4373 61.2813 30.0635 60.3994C30.4653 59.841 34.6192 58.4894 42.6556 56.042C44.743 55.4053 46.5225 54.8574 46.7417 54.753L50.2067 53.0205C50.2371 53.0045 50.2704 52.9947 50.3046 52.9918C50.3388 52.9889 50.3733 52.9929 50.4059 53.0037C50.4385 53.0144 50.4687 53.0316 50.4945 53.0542C50.5204 53.0768 50.5414 53.1044 50.5564 53.1353C50.5715 53.1661 50.5804 53.1996 50.5826 53.2339C50.5847 53.2682 50.5801 53.3026 50.5689 53.335C50.5578 53.3675 50.5403 53.3975 50.5176 53.4232C50.4948 53.4489 50.4672 53.4699 50.4363 53.4849L46.9713 55.2175C46.7312 55.3375 45.3796 55.7393 42.7965 56.5377C38.6635 57.8006 30.9715 60.1489 30.4758 60.7125C29.98 61.2761 26.7811 72.6627 24.6468 80.2973L27.663 81.1584L34.9689 67.5904C34.9868 67.5568 35.0121 67.5277 35.0428 67.5051C35.0735 67.4825 35.1088 67.4671 35.1463 67.4599C35.3289 67.4182 53.7031 63.4991 54.7885 63.1339C55.7696 62.8103 57.1003 61.3126 57.3403 59.8775C57.3447 59.8435 57.356 59.8106 57.3736 59.7811C57.3912 59.7516 57.4146 59.726 57.4425 59.7059C57.4704 59.6858 57.5022 59.6717 57.5358 59.6644C57.5694 59.6572 57.6041 59.6569 57.6378 59.6636C57.6716 59.6686 57.704 59.6804 57.7331 59.6982C57.7623 59.716 57.7876 59.7394 57.8075 59.7672C57.8275 59.7949 57.8417 59.8263 57.8493 59.8596C57.8568 59.8929 57.8577 59.9274 57.8517 59.961C57.6013 61.4587 56.2236 63.2069 54.9555 63.614C53.8753 63.974 37.098 67.5591 35.3707 67.9296L28.0074 81.555C27.9939 81.5967 27.9701 81.6344 27.9382 81.6645C27.9063 81.6946 27.8673 81.7161 27.8248 81.7272Z" fill="white"/>
</g>
</mask>
<g mask="url(#mask10_53_970)">
<path d="M39.4411 57.3049C35.1828 58.62 30.6323 60.0864 30.2983 60.5508C29.86 61.1666 27.0577 70.9251 25.4608 76.5506C27.8144 75.3399 31.5925 73.289 30.2983 73.1899C28.5293 73.049 28.2579 72.0992 30.5697 70.4659C32.8815 68.8325 37.3537 65.5657 36.1534 65.2944C34.9532 65.023 30.7106 64.4751 33.2937 63.1131C35.8769 61.7511 50.1754 63.1131 52.7585 61.8867C55.3417 60.6604 49.4918 60.1177 46.0894 59.7106C42.6869 59.3036 49.2204 59.3036 49.2204 59.3036C49.2204 59.3036 51.5374 59.1679 50.9895 56.6944C50.4416 54.2208 48.0724 55.1289 46.8774 54.9619C46.559 55.1236 43.548 56.0056 40.1821 57.0492L39.4411 57.3049Z" fill="#92E3A9"/>
<path opacity="0.5" d="M39.4411 57.3049C35.1828 58.62 30.6323 60.0864 30.2983 60.5508C29.86 61.1666 27.0577 70.9251 25.4608 76.5506C27.8144 75.3399 31.5925 73.289 30.2983 73.1899C28.5293 73.049 28.2579 72.0992 30.5697 70.4659C32.8815 68.8325 37.3537 65.5657 36.1534 65.2944C34.9532 65.023 30.7106 64.4751 33.2937 63.1131C35.8769 61.7511 50.1754 63.1131 52.7585 61.8867C55.3417 60.6604 49.4918 60.1177 46.0894 59.7106C42.6869 59.3036 49.2204 59.3036 49.2204 59.3036C49.2204 59.3036 51.5374 59.1679 50.9895 56.6944C50.4416 54.2208 48.0724 55.1289 46.8774 54.9619C46.559 55.1236 43.548 56.0056 40.1821 57.0492L39.4411 57.3049Z" fill="white"/>
</g>
<path d="M27.8248 81.4664C27.8248 81.4664 28.691 85.6725 28.691 86.043C28.691 86.4135 27.449 87.405 27.449 87.405L26.708 88.5165C26.708 88.5165 25.346 89.0384 24.9755 88.5165C24.7035 88.092 24.496 87.6295 24.3597 87.1441C24.3597 87.1441 22.7472 87.2693 22.502 86.1578C22.2567 85.0463 24.3597 80.4645 24.3597 80.4645L27.8248 81.4664Z" fill="white"/>
<path d="M25.6017 88.9966C25.447 89.0107 25.2912 88.9889 25.1463 88.9327C25.0015 88.8766 24.8716 88.7877 24.7668 88.6731C24.5082 88.2862 24.3062 87.8645 24.1667 87.4206C23.6761 87.4206 22.4811 87.2849 22.2463 86.2204C21.9906 85.0567 23.9005 80.8402 24.1197 80.3601C24.1467 80.3045 24.1922 80.2601 24.2484 80.2343C24.3045 80.2086 24.3679 80.2033 24.4276 80.2192L27.8926 81.2055C27.9391 81.2199 27.9809 81.2463 28.0139 81.282C28.0469 81.3177 28.0699 81.3615 28.0805 81.409C28.2214 82.1135 28.952 85.6568 28.952 86.0377C28.952 86.4187 28.1484 87.1701 27.6474 87.6033L26.9272 88.6835C26.8948 88.729 26.8493 88.7635 26.7968 88.7826C26.4124 88.9172 26.0089 88.9894 25.6017 88.9966ZM24.3598 86.9092C24.4162 86.9092 24.4711 86.9275 24.5163 86.9614C24.5615 86.9953 24.5944 87.0429 24.6102 87.0971C24.7384 87.5489 24.9318 87.9796 25.1843 88.3756C25.3408 88.5843 26.0453 88.48 26.5411 88.313L27.2351 87.2693C27.2497 87.2478 27.2673 87.2284 27.2873 87.2119C27.7321 86.8903 28.1187 86.4949 28.4301 86.043C28.4301 85.8029 27.9083 83.3033 27.6004 81.6803L24.5007 80.7984C23.7075 82.5623 22.5959 85.4011 22.7577 86.1212C22.9508 87.0031 24.3232 86.9092 24.3232 86.904L24.3598 86.9092Z" fill="#263238"/>
<path d="M28.8111 79.3738H28.738L24.9024 78.2727C24.8368 78.2522 24.7816 78.207 24.7485 78.1467C24.7155 78.0864 24.707 78.0156 24.725 77.9492C24.734 77.9159 24.7496 77.8848 24.7709 77.8577C24.7922 77.8306 24.8187 77.8081 24.849 77.7915C24.8792 77.7749 24.9124 77.7646 24.9467 77.7613C24.981 77.7579 25.0157 77.7614 25.0486 77.7718L28.8841 78.8833C28.9533 78.893 29.0158 78.9298 29.0579 78.9856C29.1 79.0413 29.1182 79.1115 29.1085 79.1808C29.0988 79.25 29.062 79.3125 29.0062 79.3545C28.9505 79.3966 28.8803 79.4148 28.8111 79.4051V79.3738Z" fill="#263238"/>
<path d="M124.705 88.6626C121.752 87.0501 120.405 88.3913 119.33 87.0501C118.255 85.709 122.284 82.2126 114.221 78.7006C114.221 78.7006 113.7 71.1756 102.668 70.9042C91.6359 70.6329 94.6052 78.4345 91.6464 80.2975C88.6875 82.1604 87.8839 79.2224 84.9302 81.1063C81.9766 82.9902 83.3177 86.7475 80.8964 87.285C78.475 87.8225 75.2552 84.8688 72.2964 86.7631C69.3375 88.6574 69.3427 90.2595 67.9964 90.2595C66.65 90.2595 63.9677 89.1845 62.3552 90.2595C60.7427 91.3345 58.8589 92.6756 58.8589 92.6756H126.855C126.855 92.6756 127.664 90.2751 124.705 88.6626Z" fill="white"/>
<path d="M159.47 37.2505C157.707 36.2851 156.903 37.0888 156.261 36.2851C155.619 35.4815 158.03 33.3993 153.214 31.3172C153.214 31.3172 152.895 26.8241 146.32 26.6623C139.745 26.5005 141.503 31.1554 139.74 32.2774C137.976 33.3993 137.496 31.6355 135.732 32.7575C133.968 33.8794 134.766 36.1286 133.326 36.4469C131.886 36.7652 129.955 35.0066 128.191 36.1286C126.427 37.2505 126.427 38.216 125.624 38.216C124.82 38.216 123.218 37.5741 122.258 38.216C121.298 38.8578 120.17 39.6615 120.17 39.6615H160.754C160.754 39.6615 161.234 38.2107 159.47 37.2505Z" fill="white"/>
<path d="M194.418 101.818C192.331 100.686 191.397 101.63 190.64 100.686C189.884 99.7414 192.728 97.2887 187.055 94.8309C187.055 94.8309 186.674 89.5446 178.935 89.3567C171.196 89.1688 173.273 94.643 171.196 95.9685C169.119 97.294 168.551 95.2118 166.474 96.5321C164.397 97.8523 165.341 100.498 163.645 100.874C161.949 101.25 159.679 99.1778 157.602 100.498C155.525 101.818 155.515 102.951 154.581 102.951C153.647 102.951 151.747 102.194 150.615 102.951C149.482 103.707 147.812 107.246 147.812 107.246H195.577C195.577 107.246 196.475 102.951 194.418 101.818Z" fill="white"/>
<g opacity="0.11">
<path d="M194.09 104.433C192.002 103.3 191.068 104.245 190.317 103.3C189.565 102.356 192.404 99.9032 186.726 97.4505C186.726 97.4505 186.351 92.1642 178.607 91.9712C170.862 91.7781 172.945 97.2575 170.868 98.5829C168.791 99.9084 168.227 97.8263 166.171 99.1465C164.115 100.467 165.039 103.113 163.337 103.488C161.636 103.864 159.371 101.792 157.294 103.113C155.217 104.433 155.207 105.565 154.273 105.565C153.339 105.565 151.445 104.814 150.312 105.565C149.18 106.317 147.854 107.266 147.854 107.266H195.624C195.624 107.266 196.167 105.565 194.09 104.433Z" fill="black"/>
</g>
<path d="M210.914 78.685C207.736 76.9525 206.296 78.398 205.137 76.9525C203.979 75.507 208.315 71.7341 199.647 67.9924C199.647 67.9924 199.073 59.9038 187.222 59.6168C175.371 59.3298 178.56 67.7054 175.382 69.7302C172.204 71.7549 171.332 68.5717 168.154 70.5964C164.976 72.6212 166.421 76.6603 163.823 77.2395C161.224 77.8188 157.754 74.6303 154.576 76.6603C151.398 78.6902 151.398 80.4176 149.952 80.4176C148.507 80.4176 145.621 79.2643 143.888 80.4176C142.156 81.5708 139.593 86.9928 139.593 86.9928H212.693C212.693 86.9928 214.092 80.4175 210.914 78.685Z" fill="white"/>
<g opacity="0.11">
<path d="M210.418 82.6875C207.24 80.955 205.795 82.3953 204.636 80.955C203.478 79.5147 207.814 75.7366 199.146 71.9949C199.146 71.9949 198.572 63.9063 186.726 63.6193C174.881 63.3323 178.059 71.7079 174.881 73.7275C171.703 75.747 170.836 72.5742 167.653 74.5989C164.47 76.6237 165.921 80.6628 163.322 81.242C160.723 81.8213 157.253 78.6328 154.075 80.6628C150.897 82.6927 150.897 84.4201 149.451 84.4201C148.006 84.4201 145.12 83.2668 143.387 84.4201C141.655 85.5733 139.63 87.0293 139.63 87.0293H212.73C212.73 87.0293 213.596 84.4201 210.418 82.6875Z" fill="black"/>
</g>
<path d="M156.131 124.268C153.48 122.823 152.274 124.028 151.314 122.823C150.354 121.617 153.96 118.486 146.738 115.355C146.738 115.355 146.252 108.613 136.379 108.373C126.506 108.133 129.157 115.115 126.506 116.801C123.855 118.486 123.129 115.84 120.483 117.526C117.838 119.211 119.038 122.583 116.867 123.063C114.696 123.543 111.81 120.897 109.159 122.583C106.508 124.268 106.514 125.714 105.308 125.714C104.103 125.714 101.692 124.753 100.246 125.714C98.8009 126.674 96.6717 131.193 96.6717 131.193H157.608C157.608 131.193 158.782 125.714 156.131 124.268Z" fill="white"/>
<g opacity="0.11">
<path d="M155.713 127.608C153.062 126.162 151.857 127.363 150.897 126.162C149.936 124.962 153.548 121.826 146.32 118.695C146.32 118.695 145.84 111.947 135.961 111.707C126.083 111.467 128.734 118.455 126.088 120.14C123.442 121.826 122.712 119.175 120.066 120.86C117.42 122.546 118.621 125.917 116.45 126.402C114.279 126.888 111.393 124.232 108.742 125.917C106.091 127.603 106.096 129.048 104.891 129.048C103.685 129.048 101.274 128.083 99.8341 129.048C98.3938 130.014 96.703 131.214 96.703 131.214H157.639C157.639 131.214 158.38 129.053 155.713 127.608Z" fill="black"/>
</g>
</svg>
