<svg width="156" height="261" viewBox="0 0 156 261" fill="none" xmlns="http://www.w3.org/2000/svg">
<path d="M59.0479 139.345C59.0463 139.362 59.0463 139.38 59.0479 139.398C58.641 140.275 52.7744 153.246 45.6275 165.709C43.7539 168.98 41.7956 172.208 39.8202 175.181C35.522 181.654 31.1644 186.89 27.5443 188.521C15.6754 193.862 22.4576 152.01 22.4576 152.01C26.7868 146.679 30.5103 140.853 33.5551 134.644C34.9709 131.75 36.6156 128.391 38.3366 124.996C39.6591 122.409 41.0156 119.822 42.3466 117.427C45.3562 111.99 48.1624 107.604 49.8665 106.745C51.7316 105.798 54.3088 115.577 56.2587 124.672C57.8441 132.25 59.0479 139.345 59.0479 139.345Z" fill="white" stroke="#263238" stroke-linecap="round" stroke-linejoin="round"/>
<path d="M59.0479 139.345C59.0463 139.362 59.0463 139.38 59.0479 139.397C58.641 140.275 52.7743 153.246 45.6275 165.709C47.7809 145.791 45.7632 132.469 45.7632 132.469C41.1766 125.294 38.3027 125.023 38.3027 125.023C39.6252 122.435 40.9817 119.848 42.3127 117.454L48.3828 111.586L56.2248 124.698C57.8441 132.249 59.0479 139.345 59.0479 139.345Z" fill="#263238"/>
<path d="M113.747 5.40155C124.463 13.4266 133.839 41.7729 130.262 60.1909C126.684 78.609 145.089 83.8713 145.022 112.946C145.022 121.05 120.758 153.992 92.5862 136.416C64.4144 118.839 56.5893 110.192 59.2683 92.5629C61.9473 74.9342 62.066 63.3396 56.9793 48.5437C51.8926 33.7478 94.3072 -9.13119 113.747 5.40155Z" fill="#263238"/>
<path d="M154.966 129.724L148.981 133.925C147.422 144.088 144.704 154.024 140.884 163.525C133.348 181.829 126.676 192.74 124.344 196.344C123.768 197.221 123.454 197.66 123.454 197.66L129.711 221.928C129.711 221.928 87.9573 266.842 41.9058 260.36L44.9832 234.926L49.1289 200.721L50.4768 189.609C50.4768 189.609 49.9088 181.636 49.0017 171.822C48.3828 165.06 47.6028 157.421 46.7212 150.913C46.6846 150.622 46.6704 150.329 46.6788 150.036C46.7466 145.931 49.858 137.301 49.858 137.301C47.2298 132.995 44.7713 129.031 42.7451 125.9C40.0661 121.699 38.2942 118.997 38.2942 118.997C38.2942 118.997 47.6198 107.14 48.1454 105.789C51.0957 97.7989 61.4048 99.2899 61.4048 99.2899C62.1754 98.5186 63.1382 97.9841 64.1855 97.7463C69.0857 96.4745 83.0147 106.578 90.6194 106.657C98.224 106.736 135.552 96.3342 135.552 96.3342L139.35 97.7463C139.35 97.7463 144.496 97.1148 148.514 104.815C150.422 108.543 154.966 129.724 154.966 129.724Z" fill="#008158"/>
<path opacity="0.3" d="M87.9404 229.742C87.9404 229.742 61.9982 238.802 44.9408 234.935L49.0865 200.73C52.7828 204.527 74.2147 225.919 87.9404 229.742Z" fill="black" fill-opacity="0.7"/>
<path opacity="0.3" d="M49.8155 137.336C47.1874 133.03 44.7288 129.066 42.7026 125.935C44.466 121.55 47.0857 117.489 50.7142 117.726C50.7142 117.726 48.1793 129.373 49.8155 137.336Z" fill="black" fill-opacity="0.7"/>
<path opacity="0.3" d="M133.95 129.724C129.295 131.32 118.749 136.152 118.749 136.152L116.799 133.811L124.302 122.69C124.302 122.69 119.02 124.9 116.799 127.68C114.578 130.46 113.993 136.661 113.908 136.635C113.823 136.608 111.967 130.11 111.967 130.11C111.336 132.815 110.922 135.569 110.729 138.345C110.483 141.283 113.603 146.063 116.307 149.615L111.594 175.567L93.6205 164.262L85.1427 158.947C84.4015 158.543 83.6852 158.092 82.9978 157.596C82.0144 156.772 81.3701 155.702 80.2256 154.965C78.9178 154.206 77.5054 153.659 76.0375 153.343C70.6711 152.05 65.0944 152.005 59.7092 153.211C57.4371 153.72 55.1057 154.448 52.8506 153.895C50.5955 153.343 48.6626 151.474 46.6788 150.071C46.6704 150.364 46.6846 150.658 46.7212 150.948C47.5689 157.456 48.4167 165.095 49.0017 171.857H49.9682C50.5939 171.821 51.2215 171.875 51.8333 172.015C53.1304 172.383 55.7076 178.926 56.5978 179.961C63.1003 187.469 73.9774 200.133 81.8787 206.053C80.3018 201.668 72.0529 186.32 72.2055 181.496C73.9774 182.11 75.3593 183.522 76.7836 184.776C81.0733 188.583 86.194 191.231 91.2467 193.845L102.378 199.607C105.769 201.361 110.237 204.106 114.137 203.028C117.333 202.151 121.36 198.827 123.912 196.73L124.336 196.38C126.667 192.775 133.339 181.864 140.876 163.56C144.695 154.059 147.413 144.123 148.972 133.96L154.958 129.759C154.958 129.759 138.604 128.127 133.95 129.724Z" fill="black" fill-opacity="0.7"/>
<path d="M41.9058 260.36L50.4768 189.652C50.4768 189.652 48.866 166.919 46.7212 150.957C46.2379 147.379 49.858 137.336 49.858 137.336C43.6946 127.25 38.2942 119.032 38.2942 119.032C38.2942 119.032 47.6198 107.175 48.1454 105.824C51.0957 97.834 61.4048 99.325 61.4048 99.325C62.1754 98.5537 63.1382 98.0192 64.1855 97.7814C69.0857 96.5096 83.0147 106.613 90.6194 106.692C98.224 106.771 135.552 96.3693 135.552 96.3693L139.35 97.7814C139.35 97.7814 144.496 97.1499 148.514 104.85C150.447 108.543 155 129.724 155 129.724L149.015 133.925C147.456 144.088 144.738 154.024 140.918 163.525C131.525 186.328 123.479 197.678 123.479 197.678L129.736 221.946" stroke="#263238" stroke-linecap="round" stroke-linejoin="round"/>
<path d="M125.285 121.348C125.285 121.348 114.663 135.582 114.925 138.213C115.188 140.845 120.105 143.555 120.105 143.555" stroke="#263238" stroke-linecap="round" stroke-linejoin="round"/>
<path d="M111.594 127.057C112.106 130.754 112.403 134.48 112.484 138.213C112.484 143.09 125.285 151.185 125.285 151.185" stroke="#263238" stroke-linecap="round" stroke-linejoin="round"/>
<path d="M49.8155 137.336C49.8155 137.336 48.9253 118.568 51.7485 115.331" stroke="#263238" stroke-linecap="round" stroke-linejoin="round"/>
<path d="M46.6788 122.269C46.6788 122.269 48.137 131.986 49.6799 133.837" stroke="#263238" stroke-linecap="round" stroke-linejoin="round"/>
<path d="M94.375 129.724C94.375 129.724 76.0375 141.932 59.0479 143.555" stroke="#263238" stroke-linecap="round" stroke-linejoin="round"/>
<path d="M59.0479 183.11C59.0479 183.11 79.6151 208.781 93.0355 212.254" stroke="#263238" stroke-linecap="round" stroke-linejoin="round"/>
<path d="M123.446 197.678C123.446 197.678 118.774 194.169 120.105 192.117" stroke="#263238" stroke-linecap="round" stroke-linejoin="round"/>
<path d="M111.594 218.551C111.594 218.551 82.4128 235.382 67.5088 233.996" stroke="#263238" stroke-linecap="round" stroke-linejoin="round"/>
<path d="M33.2923 164.595C29.4857 150.124 23.2545 145.405 19.1428 129.908C17.9219 125.321 14.3019 111.332 14.3019 111.332C14.3019 111.332 18.9223 96.422 9.68998 87.9321C9.68998 87.9321 7.14664 87.9321 2.81447 98.255C1.00478 102.764 0.535447 107.729 1.46647 112.516C1.46647 112.516 4.34046 130.697 4.96782 135.582C6.47687 147.361 9.74931 167.086 14.2934 176.988C19.1682 187.574 24.3058 189.942 28.1547 187.758" fill="white"/>
<path d="M33.2923 164.595C29.4857 150.124 23.2545 145.405 19.1428 129.908C17.9219 125.321 14.3019 111.332 14.3019 111.332C14.3019 111.332 18.9223 96.422 9.68998 87.9321C9.68998 87.9321 7.14664 87.9321 2.81447 98.255C1.00478 102.764 0.535447 107.729 1.46647 112.516C1.46647 112.516 4.34046 130.697 4.96782 135.582C6.47687 147.361 9.74931 167.086 14.2934 176.988C19.1682 187.574 24.3058 189.942 28.1547 187.758" stroke="#263238" stroke-linecap="round" stroke-linejoin="round"/>
<path d="M15.9127 108.157L25.7979 111.533C26.8406 111.814 28.8923 110.016 28.799 108.902L25.8402 73.3116C25.7827 72.6106 25.516 71.9454 25.0771 71.4081C24.6382 70.8707 24.0487 70.4877 23.3902 70.3121L12.4792 67.8563C11.4364 67.5845 8.81676 68.8737 8.91002 69.9788L13.4541 105.157C13.5123 105.859 13.7802 106.525 14.2207 107.063C14.6613 107.6 15.2526 107.983 15.9127 108.157Z" fill="#008158"/>
<mask id="mask0_53_908" style="mask-type:luminance" maskUnits="userSpaceOnUse" x="8" y="67" width="21" height="45">
<path d="M15.9127 108.157L25.7979 111.533C26.8406 111.814 28.8923 110.016 28.799 108.902L25.8402 73.3116C25.7827 72.6106 25.516 71.9454 25.0771 71.4081C24.6382 70.8707 24.0487 70.4877 23.3902 70.3121L12.4792 67.8563C11.4364 67.5845 8.81676 68.8737 8.91002 69.9788L13.4541 105.157C13.5123 105.859 13.7802 106.525 14.2207 107.063C14.6613 107.6 15.2526 107.983 15.9127 108.157Z" fill="white"/>
</mask>
<g mask="url(#mask0_53_908)">
<path opacity="0.3" d="M15.9127 108.157L25.7979 111.533C26.8406 111.814 28.8923 110.016 28.799 108.902L25.8402 73.3116C25.7827 72.6106 25.516 71.9454 25.0771 71.4081C24.6382 70.8707 24.0487 70.4877 23.3902 70.3121L12.4792 67.8563C11.4364 67.5845 8.81676 68.8737 8.91002 69.9788L13.4541 105.157C13.5123 105.859 13.7802 106.525 14.2207 107.063C14.6613 107.6 15.2526 107.983 15.9127 108.157Z" fill="black" fill-opacity="0.7"/>
</g>
<path d="M15.9127 108.157L25.7979 111.533C26.8406 111.814 28.8923 110.016 28.799 108.902L25.8402 73.3116C25.7827 72.6106 25.516 71.9454 25.0771 71.4081C24.6382 70.8707 24.0487 70.4877 23.3902 70.3121L12.4792 67.8563C11.4364 67.5845 8.81676 68.8737 8.91002 69.9788L13.4541 105.157C13.5123 105.859 13.7802 106.525 14.2207 107.063C14.6613 107.6 15.2526 107.983 15.9127 108.157Z" stroke="#263238" stroke-linecap="round" stroke-linejoin="round"/>
<path d="M14.2849 109.034L25.1959 111.481C25.4367 111.547 25.6892 111.552 25.9321 111.495C26.175 111.439 26.4013 111.322 26.5917 111.156C26.7821 110.99 26.9311 110.779 27.026 110.541C27.121 110.303 27.1592 110.045 27.1373 109.788L24.221 74.1888C24.1629 73.4866 23.8949 72.8206 23.4544 72.2831C23.0138 71.7456 22.4224 71.3633 21.7624 71.1892L10.8599 68.7335C10.6185 68.6695 10.3659 68.6663 10.1231 68.724C9.88032 68.7818 9.65442 68.8988 9.46433 69.0654C9.27424 69.232 9.12548 69.4433 9.03051 69.6816C8.93553 69.9199 8.89711 70.1782 8.91845 70.435L11.8348 106.034C11.8924 106.735 12.1591 107.401 12.598 107.938C13.0369 108.475 13.6264 108.858 14.2849 109.034Z" fill="#008158" stroke="#263238" stroke-linecap="round" stroke-linejoin="round"/>
<path opacity="0.3" d="M20.3381 80.7753L22.093 81.17C22.1317 81.1797 22.1721 81.1798 22.2108 81.1704C22.2496 81.161 22.2857 81.1424 22.3162 81.1159C22.3467 81.0895 22.3708 81.056 22.3865 81.0182C22.4022 80.9803 22.4091 80.9392 22.4067 80.8981L21.9404 75.1534C21.93 75.0404 21.8861 74.9335 21.8148 74.8472C21.7435 74.7608 21.6482 74.6994 21.542 74.671L19.7786 74.2764C19.7399 74.2667 19.6995 74.2665 19.6608 74.2759C19.622 74.2853 19.5859 74.304 19.5554 74.3304C19.5249 74.3569 19.5008 74.3903 19.4851 74.4282C19.4694 74.466 19.4625 74.5071 19.4649 74.5482L19.9397 80.2929C19.9501 80.4059 19.994 80.5129 20.0653 80.5992C20.1366 80.6855 20.2318 80.747 20.3381 80.7753Z" fill="black" fill-opacity="0.7"/>
<path d="M4.99327 98.6145C4.56938 93.6241 8.9609 86.1341 11.8857 86.1341C14.8106 86.1341 23.6954 93.2207 23.6954 93.2207C27.1374 95.7992 25.4333 98.255 25.4333 98.255C27.4595 99.6407 27.9767 101.518 27.0865 102.386C26.1963 103.254 23.2206 102.386 23.2206 102.386C23.2206 102.386 26.1709 104.614 25.4333 105.71C23.6954 108.297 17.9813 104.885 17.9813 104.885C17.9813 104.885 21.2961 107.148 21.1096 107.578C19.8549 110.402 14.4376 107.113 14.4376 107.113L10.631 109.13C10.6345 109.595 10.5451 110.055 10.3684 110.482C10.1917 110.909 9.93153 111.293 9.6043 111.611C9.27708 111.929 8.88983 112.174 8.46688 112.329C8.04394 112.485 7.59445 112.548 7.14664 112.516" fill="white"/>
<path d="M4.99327 98.6145C4.56938 93.6241 8.9609 86.1341 11.8857 86.1341C14.8106 86.1341 23.6954 93.2207 23.6954 93.2207C27.1374 95.7992 25.4333 98.255 25.4333 98.255C27.4595 99.6407 27.9767 101.518 27.0865 102.386C26.1963 103.254 23.2206 102.386 23.2206 102.386C23.2206 102.386 26.1709 104.614 25.4333 105.71C23.6954 108.297 17.9813 104.885 17.9813 104.885C17.9813 104.885 21.2961 107.148 21.1096 107.578C19.8549 110.402 14.4376 107.113 14.4376 107.113L10.631 109.13C10.6345 109.595 10.5451 110.055 10.3684 110.482C10.1917 110.909 9.93153 111.293 9.6043 111.611C9.27708 111.929 8.88983 112.174 8.46688 112.329C8.04394 112.485 7.59445 112.548 7.14664 112.516" stroke="#263238" stroke-linecap="round" stroke-linejoin="round"/>
<path d="M25.4333 98.255C25.4333 98.255 17.1081 92.6945 16.0569 92.5454C15.0056 92.3963 11.1482 91.528 11.1482 91.528" fill="white"/>
<path d="M25.4333 98.255C25.4333 98.255 17.1081 92.6945 16.0569 92.5454C15.0056 92.3963 11.1482 91.528 11.1482 91.528" stroke="#263238" stroke-linecap="round" stroke-linejoin="round"/>
<path d="M23.2545 102.386C23.2545 102.386 16.4722 98.7724 15.2514 98.7724C13.3797 98.5601 11.5224 98.2291 9.68994 97.7813" fill="white"/>
<path d="M23.2545 102.386C23.2545 102.386 16.4722 98.7724 15.2514 98.7724C13.3797 98.5601 11.5224 98.2291 9.68994 97.7813" stroke="#263238" stroke-linecap="round" stroke-linejoin="round"/>
<path d="M17.9813 104.885C17.1913 104.304 16.3546 103.793 15.4803 103.359C13.8659 103.24 12.2453 103.24 10.631 103.359" fill="white"/>
<path d="M17.9813 104.885C17.1913 104.304 16.3546 103.793 15.4803 103.359C13.8659 103.24 12.2453 103.24 10.631 103.359" stroke="#263238" stroke-linecap="round" stroke-linejoin="round"/>
<path d="M102.76 160.903C102.76 160.903 108.016 157.842 112.713 146.423C117.409 135.003 118.749 136.152 118.749 136.152C118.749 136.152 129.032 130.934 133.95 129.724C138.867 128.513 147.811 129.724 147.811 129.724C147.811 129.724 140.181 152.623 132.39 167.516C124.599 182.408 118.325 191.196 114.162 192.073C110 192.95 102.76 160.903 102.76 160.903Z" fill="white" stroke="#263238" stroke-linecap="round" stroke-linejoin="round"/>
<path d="M133.28 97.8691C133.28 97.8691 95.8587 118.489 85.041 118.375C74.2233 118.261 67.4834 99.0794 67.4834 99.0794C67.4834 99.0794 87.4911 98.6146 85.1681 88.7214C85.1681 88.5548 85.0918 88.3706 85.041 88.1952C84.083 84.7396 80.4121 78.688 79.0471 76.5129C78.725 75.9954 78.53 75.6972 78.53 75.6972L108.143 52.8237C106.447 75.9516 109.72 86.0903 111.729 89.8967C115.18 96.4132 133.28 97.8691 133.28 97.8691Z" fill="white" stroke="#263238" stroke-linecap="round" stroke-linejoin="round"/>
<path d="M99.7415 65.7866C99.7415 65.7866 93.5697 83.8363 85.1427 88.7215C85.1427 88.5548 85.0664 88.3706 85.0156 88.1952C84.0576 84.7396 80.3867 78.688 79.0217 76.5129L99.7415 65.7866Z" fill="#263238"/>
<path d="M86.9146 112.875C86.9146 112.875 89.0086 108.692 92.1369 108.201C95.2652 107.71 103.879 107.622 119.809 104.885" stroke="#263238" stroke-linecap="round" stroke-linejoin="round"/>
<path d="M82.1077 112.875C82.1077 112.875 80.7682 109.622 80.4121 108.201C80.056 106.78 71.7308 104.991 68.967 102.64" stroke="#263238" stroke-linecap="round" stroke-linejoin="round"/>
<path d="M59.4633 14.7508C53.9782 20.934 52.342 41.115 55.0803 49.8329C55.0803 49.8329 68.8229 51.8676 72.036 49.3067C75.2491 46.7457 59.4633 14.7508 59.4633 14.7508Z" fill="#263238"/>
<path d="M111.144 55.5074C112.467 49.4646 119.478 20.1711 102.972 7.20823C86.4652 -5.75459 66.3304 11.5321 63.5072 15.6104C52.1215 32.0639 57.1658 45.1407 59.2683 53.0254C61.3708 60.9101 60.3365 70.4612 70.9847 83.5906C75.461 89.1073 83.5149 86.1692 91.4502 80.4595C96.2062 77.039 102.904 71.0225 103.073 65.2252" fill="white"/>
<path d="M111.144 55.5074C112.467 49.4646 119.478 20.1711 102.972 7.20823C86.4652 -5.75459 66.3304 11.5321 63.5072 15.6104C52.1215 32.0639 57.1658 45.1407 59.2683 53.0254C61.3708 60.9101 60.3365 70.4612 70.9847 83.5906C75.461 89.1073 83.5149 86.1692 91.4502 80.4595C96.2062 77.039 102.904 71.0225 103.073 65.2252" stroke="#263238" stroke-linecap="round" stroke-linejoin="round"/>
<path d="M73.4094 42.6675C73.4094 42.6675 82.3535 41.0186 87.4147 44.2988" stroke="#263238" stroke-linecap="round" stroke-linejoin="round"/>
<path d="M82.8706 51.6133C83.091 53.0342 82.6078 54.2971 81.7854 54.4374C80.9631 54.5778 80.0899 53.5604 79.8864 52.122C79.6829 50.6837 80.1492 49.4383 80.9716 49.2979C81.7939 49.1576 82.6417 50.1925 82.8706 51.6133Z" fill="#263238"/>
<path d="M64.9994 51.6133C65.2198 53.0342 64.7365 54.2971 63.9142 54.4374C63.0919 54.5778 62.2186 53.5604 62.0152 52.122C61.8117 50.6837 62.278 49.4383 63.1003 49.2979C63.9227 49.1576 64.7959 50.1925 64.9994 51.6133Z" fill="#263238"/>
<path d="M63.5073 42.7551C63.5073 42.7551 58.5732 40.9308 56.9794 43.2726" stroke="#263238" stroke-linecap="round" stroke-linejoin="round"/>
<path d="M66.6187 50.9118C67.1273 52.9115 63.2275 61.9275 63.5073 62.7081C63.7871 63.4887 65.703 64.8744 69.1366 65.2252" stroke="#263238" stroke-linecap="round" stroke-linejoin="round"/>
<path d="M70.8321 71.4259C70.8321 71.4259 77.9874 71.4259 82.1076 68.4176" stroke="#263238" stroke-linecap="round" stroke-linejoin="round"/>
<path d="M61.5064 10.4007C61.5064 10.4007 53.9611 17.6539 58.8274 31.9148C59.9017 34.8229 61.4885 37.4994 63.5072 39.8083C68.5515 36.8701 71.0694 41.4571 74.0875 39.9574C77.1056 38.4576 81.9126 41.6413 85.0409 41.0098C86.5793 40.6552 88.1758 40.6709 89.7075 41.0556C91.2391 41.4403 92.6648 42.1838 93.8748 43.2288C96.2231 45.4038 96.2231 50.1662 99.7414 52.4641C99.7414 52.4641 101.793 45.0179 106.117 46.0967C110.44 47.1755 106.617 60.1295 106.617 60.1295C112.035 53.2968 115.414 44.9803 116.341 36.1948C118.037 21.2849 112.339 8.26072 102.776 5.49801C102.776 5.49801 99.5888 -0.922009 88.6863 0.112912C77.7838 1.14783 67.8987 0.516365 61.5064 10.4007Z" fill="#263238"/>
<path d="M102.76 48.0524C102.76 48.0524 106.787 37.8436 112.653 42.0797C118.52 46.3159 111.483 59.3226 108.626 62.6203C105.769 65.918 104.938 62.2782 104.608 61.2345" fill="white"/>
<path d="M102.76 48.0524C102.76 48.0524 106.787 37.8436 112.653 42.0797C118.52 46.3159 111.483 59.3226 108.626 62.6203C105.769 65.918 104.938 62.2782 104.608 61.2345" stroke="#263238" stroke-linecap="round" stroke-linejoin="round"/>
<g opacity="0.2">
<path d="M64.1518 17.8207C64.3208 15.2654 65.0609 12.7855 66.3137 10.5763" stroke="white" stroke-linecap="round" stroke-linejoin="round"/>
<path d="M70.8321 35.3881C67.2035 31.1958 64.4398 25.5563 64.1431 19.8906" stroke="white" stroke-linecap="round" stroke-linejoin="round"/>
<path d="M78.53 28.3365C80.5775 31.8024 83.4688 34.6513 86.9146 36.5983" stroke="white" stroke-linecap="round" stroke-linejoin="round"/>
<path d="M76.4698 10.5763C73.6891 15.1983 75.2914 21.8288 77.4617 26.3632" stroke="white" stroke-linecap="round" stroke-linejoin="round"/>
<path d="M104.726 36.8614C106.828 37.989 109.035 38.8912 111.314 39.5539" stroke="white" stroke-linecap="round" stroke-linejoin="round"/>
<path d="M85.041 16.6541C89.279 24.567 95.4538 31.188 102.946 35.8527" stroke="white" stroke-linecap="round" stroke-linejoin="round"/>
</g>
<path d="M42.8638 92.7295C42.8638 92.7295 40.3204 92.7295 40.0915 94.6502C39.8626 96.571 43.6522 99.0794 43.6522 99.0794" fill="white"/>
<path d="M42.8638 92.7295C42.8638 92.7295 40.3204 92.7295 40.0915 94.6502C39.8626 96.571 43.6522 99.0794 43.6522 99.0794" stroke="#263238" stroke-linecap="round" stroke-linejoin="round"/>
<path d="M114.306 162.499C108.575 153.457 100.488 147.8 93.256 137.766C87.2702 129.445 81.7478 120.777 76.7157 111.805L69.0433 96.8956C69.0433 96.8956 59.6499 85.1782 55.8518 83.7398C52.0537 82.3014 31.2661 81.6173 31.2661 81.6173C31.2661 81.6173 30.4183 83.9503 33.6314 85.1255C36.8445 86.3008 46.6873 87.2567 46.6873 87.2567C46.6873 87.2567 43.7878 88.546 43.1181 89.6072C42.4483 90.6685 43.1181 99.3864 44.4576 101.158C45.7971 102.93 50.9431 104.543 50.9431 104.543C50.9431 104.543 51.6214 110.683 56.6487 113.726C61.6761 116.77 64.1346 116.805 64.1346 116.805C64.1346 116.805 68.8653 125.119 70.8406 131.057C75.0795 143.713 85.77 172.489 93.4934 182.864C102.632 195.143 114.476 195.616 118.757 187.802" fill="white"/>
<path d="M114.306 162.499C108.575 153.457 100.488 147.8 93.256 137.766C87.2702 129.445 81.7478 120.777 76.7157 111.805L69.0433 96.8956C69.0433 96.8956 59.6499 85.1782 55.8518 83.7398C52.0537 82.3014 31.2661 81.6173 31.2661 81.6173C31.2661 81.6173 30.4183 83.9503 33.6314 85.1255C36.8445 86.3008 46.6873 87.2567 46.6873 87.2567C46.6873 87.2567 43.7878 88.546 43.1181 89.6072C42.4483 90.6685 43.1181 99.3864 44.4576 101.158C45.7971 102.93 50.9431 104.543 50.9431 104.543C50.9431 104.543 51.6214 110.683 56.6487 113.726C61.6761 116.77 64.1346 116.805 64.1346 116.805C64.1346 116.805 68.8653 125.119 70.8406 131.057C75.0795 143.713 85.77 172.489 93.4934 182.864C102.632 195.143 114.476 195.616 118.757 187.802" stroke="#263238" stroke-linecap="round" stroke-linejoin="round"/>
<path d="M55.4703 91.8876C55.4703 91.8876 48.1794 92.7646 47.2553 93.4487C46.3312 94.1328 46.772 99.5267 47.2553 101.412C47.3376 101.904 47.5229 102.37 47.7983 102.779C48.0736 103.188 48.4323 103.53 48.8491 103.78" stroke="#263238" stroke-linecap="round" stroke-linejoin="round"/>
<path d="M52.4606 87.4322C52.4606 87.4322 45.2884 89.2827 44.8306 90.2387C44.1635 92.849 44.0507 95.5778 44.4999 98.2374C45.0849 101.167 45.2545 102.088 46.3481 102.623" stroke="#263238" stroke-linecap="round" stroke-linejoin="round"/>
<path d="M46.6788 87.2656C47.699 86.8241 48.747 86.4549 49.8156 86.1605" stroke="#263238" stroke-linecap="round" stroke-linejoin="round"/>
<path d="M51.0533 97.8691C51.6661 98.5936 52.4205 99.1754 53.2666 99.5761C54.1128 99.9767 55.0314 100.187 55.962 100.193C55.962 100.193 54.3936 106.438 57.1913 110.49" stroke="#263238" stroke-linecap="round" stroke-linejoin="round"/>
<path d="M52.4606 99.0794C52.4606 99.0794 50.8414 100.439 51.0533 101.167" stroke="#263238" stroke-linecap="round" stroke-linejoin="round"/>
<path d="M118.749 136.152C118.749 136.152 133.161 129.627 135.247 129.189C137.332 128.75 152.957 129.548 152.957 129.548C151.024 131.394 148.795 132.878 146.37 133.933C146.37 133.933 146.022 130.96 142.131 130.618C138.239 130.276 118.749 136.152 118.749 136.152Z" fill="#263238"/>
</svg>
